<svg width="50" height="50" viewBox="0 0 50 50" xmlns="http://www.w3.org/2000/svg"><title>Artboard</title><g fill="none" fill-rule="evenodd"><rect stroke="#ECF0F1" stroke-width="4" x="2" y="2" width="46" height="46" rx="16"/><path d="M11 34.223l11.399-16.6h-11.18V16h14.395L14.288 32.6h11.18v1.623H11zm0 2l11.399-16.6h-11.18V18h14.395L14.288 34.6h11.18v1.623H11zm17.99-11.66a4.019 4.019 0 0 1-1.579-1.42c-.407-.622-.61-1.245-.61-1.867v-1.218c.056-.487.196-.953.42-1.4.225-.446.527-.838.906-1.177.379-.338.849-.615 1.41-.832.561-.216 1.207-.324 1.936-.324h7.83v1.664h-7.998c-1.15 0-1.915.263-2.294.791-.38.528-.583 1.238-.61 2.13.027.434.126.812.294 1.137.168.325.463.622.884.893l7.662 3.166c.252.108.533.25.842.426.308.176.596.42.863.73.266.311.49.717.673 1.218.183.5.26 1.143.232 1.928a6.584 6.584 0 0 1-.337 1.562c-.169.474-.47.873-.905 1.197-.435.325-1.025.582-1.768.771-.744.19-1.691.285-2.842.285h-7.283v-1.664h7.157c1.29 0 2.343-.142 3.157-.427.814-.284 1.221-.859 1.221-1.724 0-.487-.035-.887-.105-1.198a1.81 1.81 0 0 0-.358-.77 2.277 2.277 0 0 0-.653-.528 19.005 19.005 0 0 0-.989-.508l-7.156-2.84zm0 2.676a4.019 4.019 0 0 1-1.579-1.42c-.407-.623-.61-1.245-.61-1.868v-1.217c.056-.487.196-.954.42-1.4.225-.447.527-.84.906-1.177.379-.339.849-.616 1.41-.832.561-.217 1.207-.325 1.936-.325h7.83v1.664h-7.998c-1.15 0-1.915.264-2.294.791-.38.528-.583 1.238-.61 2.131.027.433.126.812.294 1.136.168.325.463.623.884.893l7.662 3.166c.252.108.533.25.842.426.308.176.596.42.863.73.266.312.49.718.673 1.218.183.5.26 1.143.232 1.928a6.584 6.584 0 0 1-.337 1.562c-.169.474-.47.873-.905 1.198-.435.324-1.025.581-1.768.77-.744.19-1.691.285-2.842.285h-7.283v-1.664h7.157c1.29 0 2.343-.142 3.157-.426.814-.284 1.221-.86 1.221-1.725 0-.487-.035-.886-.105-1.197a1.81 1.81 0 0 0-.358-.771 2.277 2.277 0 0 0-.653-.528 19.005 19.005 0 0 0-.989-.507l-7.156-2.841z" fill="#ECF0F1"/></g></svg>