<svg width="43" height="42" viewBox="0 0 43 42" xmlns="http://www.w3.org/2000/svg"><title>Fill 34</title><path d="M21.499 1C10.179 1 1 10.178 1 21.501c0 9.056 5.873 16.74 14.02 19.45 1.026.19 1.4-.444 1.4-.987 0-.487-.018-1.776-.028-3.486-5.703 1.239-6.906-2.748-6.906-2.748-.932-2.368-2.276-2.999-2.276-2.999-1.861-1.272.141-1.246.141-1.246 2.057.145 3.14 2.113 3.14 2.113 1.829 3.132 4.797 2.228 5.966 1.702.186-1.324.716-2.228 1.302-2.74-4.553-.518-9.338-2.276-9.338-10.131 0-2.238.798-4.068 2.11-5.502-.211-.519-.915-2.602.2-5.425 0 0 1.722-.55 5.638 2.102a19.68 19.68 0 0 1 5.132-.691c1.742.009 3.496.236 5.133.69 3.913-2.652 5.631-2.1 5.631-2.1 1.119 2.822.415 4.905.204 5.424 1.314 1.434 2.107 3.264 2.107 5.502 0 7.874-4.793 9.608-9.36 10.115.736.633 1.392 1.884 1.392 3.797 0 2.74-.025 4.95-.025 5.623 0 .548.369 1.187 1.41.985C36.131 38.233 42 30.555 42 21.501 42 10.178 32.821 1 21.499 1" stroke="#121212" fill="#010101" fill-rule="evenodd"/></svg>