<svg width="32" height="32" viewBox="0 0 32 32" xmlns="http://www.w3.org/2000/svg"><title>Fill 209</title><path d="M24 23.985h-3.315v-5.188c0-1.237-.022-2.828-1.723-2.828-1.725 0-1.988 1.348-1.988 2.74v5.276h-3.312V13.317h3.178v1.46h.046c.442-.84 1.524-1.725 3.137-1.725 3.357 0 3.977 2.21 3.977 5.082v5.851zM9.924 11.86a1.923 1.923 0 1 1-.003-3.845 1.923 1.923 0 0 1 .003 3.845zm1.658 12.125H8.263V13.317h3.319v10.668zM16 0C7.163 0 0 7.163 0 16c0 8.836 7.163 16 16 16s16-7.164 16-16c0-8.837-7.163-16-16-16z" fill="#444" fill-rule="evenodd"/></svg>