<svg width="32" height="32" viewBox="0 0 32 32" xmlns="http://www.w3.org/2000/svg"><title>Mail</title><g fill="none" fill-rule="evenodd"><rect fill="#444" width="32" height="32" rx="16"/><g stroke="#FFF"><path d="M22.457 10.967L9.91 10.935l-1.568.196c-1.381.172-1.647.205-1.998.25L6.5 23.475c0 1.116.9 2.024 2.006 2.024h15.095a2.017 2.017 0 0 0 2.006-2.024V11.36l-1.706-.213-1.434-.18h-.01z"/><path d="M9.142 22.858l6.912-3.142 6.912 3.142"/></g><path d="M8.513 5.378c0-1.104.899-1.999 2.003-1.999h11.075a2 2 0 0 1 2.003 1.999v8.055l-7.54 3.77-7.54-3.77V5.378zm2.514-.742v1.257h5.027V4.636h-5.027zm0 2.513v1.257H21.08V7.15H11.027zm0 2.514v1.257H21.08V9.663H11.027zm1.257 2.513v1.257h7.54v-1.257h-7.54z" fill="#FFF"/></g></svg>