<svg width="44" height="44" viewBox="0 0 44 44" xmlns="http://www.w3.org/2000/svg"><title>medium</title><g fill="none" fill-rule="evenodd"><path d="M0 0h44v44H0z"/><circle stroke="#000" stroke-width="2" cx="22" cy="22" r="21"/><path d="M33 31.159h-8.381l1.67-1.848c.058-.059.076-.279.076-.608V17.19l-5.494 13.97-5.973-13.01c-.152-.33-.28-.76-.406-1.114v9.668c0 .405-.024.456.254.835l2.54 3.62H11l2.542-3.62c.279-.378.252-.43.252-.834V16.68c0-.431.066-.482-.137-.734L11.698 13h5.933l5.137 11.384L27.231 13H33l-1.537 1.92c-.227.228-.209.419-.209.773v13.01c0 .33.003.525.096.608L33 31.16z" fill="#000"/></g></svg>