<svg width="44" height="44" viewBox="0 0 44 44" xmlns="http://www.w3.org/2000/svg"><title>phone</title><g fill="none" fill-rule="evenodd"><path d="M0 0h44v44H0z"/><circle stroke="#000" stroke-width="2" cx="22" cy="22" r="21"/><path d="M27.133 24.2c-1.466 1.467-1.466 2.933-2.933 2.933-1.467 0-2.933-1.466-4.4-2.933-1.467-1.467-2.933-2.933-2.933-4.4 0-1.467 1.466-1.467 2.933-2.933C21.267 15.4 16.867 11 15.4 11c-1.467 0-4.4 4.4-4.4 4.4 0 2.933 3.014 8.88 5.867 11.733C19.717 29.986 25.667 33 28.6 33c0 0 4.4-2.933 4.4-4.4 0-1.467-4.4-5.867-5.867-4.4" fill="#000"/></g></svg>