<svg width="205" height="143" viewBox="0 0 205 143" xmlns="http://www.w3.org/2000/svg" style="background:#fff"><title>Artboard</title><path d="M53.82 246.368a6.102 6.102 0 1 1 0 2.44L0 248.81v-2.44h53.82zm195.263 58.58a6.102 6.102 0 1 1 0 2.44h-149.01v-2.44h149.01zm70.538-56.139a6.102 6.102 0 1 1 0-2.44H371v2.44h-51.379zm0 19.527a6.102 6.102 0 1 1 0-2.44l51.379-.001v2.44h-51.379zm7.567-139.125a6.102 6.102 0 1 1 0 2.44H221.99a6.102 6.102 0 1 1 0-2.44h105.198zM14.767 70.63a6.102 6.102 0 1 1 0 2.44L0 73.073v-2.44h14.767zm226.75 41.494a6.102 6.102 0 1 1 0-2.44h105.197a6.102 6.102 0 1 1 0 2.44H241.516zm73.345-124.358a6.102 6.102 0 1 1-2.44 0V-27h2.44v14.767zm-78.105 253.842a6.102 6.102 0 1 1-2.44 0l-.001-66.146a6.102 6.102 0 1 1 2.44 0v66.146zM295.336-.273a6.102 6.102 0 1 0-2.44 0l-.001 72.125v1.22H371v-2.44h-75.664V-.273zm19.526 19.526a6.102 6.102 0 1 0-2.44 0v34.293H371v-2.44h-56.138V19.252zM158.652 136.41a6.102 6.102 0 1 0-2.44 0l-.001 91.651v1.22h19.526v12.327a6.102 6.102 0 1 0 2.44 0v-14.767h-19.526V136.41zm-7.201-26.727a6.102 6.102 0 1 1 0 2.44l-12.326.001v58.579h-34.293a6.102 6.102 0 1 1 0-2.44h31.852v-58.58h14.767zm-7.566 158.652a6.102 6.102 0 1 1 0-2.44l70.904-.001v-90.432a6.102 6.102 0 1 1 2.44 0l.001 92.873h-73.345zm-19.527-78.106a6.102 6.102 0 1 1 0-2.44h14.767v58.578h12.326a6.102 6.102 0 1 1 0 2.44l-14.767.001V190.23h-12.326zM80.546 319.714a6.102 6.102 0 1 1-2.44 0v-12.326H61.02V344h-2.441v-39.053h21.967v14.767zm207.59-131.925a6.102 6.102 0 1 1 0 2.44l-12.327.001v114.717h58.58V344h-2.442v-36.612h-58.579V187.79h14.767zm31.485-36.611a6.102 6.102 0 1 1 0-2.44l14.767-.001v53.82a6.102 6.102 0 1 1-2.44 0v-51.38H319.62zm-78.105 117.158a6.102 6.102 0 1 1 0-2.44l12.326-.001v-97.632h19.526v-17.085H221.99a6.102 6.102 0 1 1 0-2.44l53.82-.001v21.967h-19.527v97.631h-14.767zM346.714 12.053a6.102 6.102 0 1 1 0 2.44h-14.767V-27h2.441v39.053h12.326zM119.6 97.358a6.102 6.102 0 1 0-2.44 0l-.001 51.379h-51.38a6.102 6.102 0 1 0 0 2.44h53.82V97.359zM65.78 14.493a6.102 6.102 0 1 1 0-2.44h31.853V-27h2.44v41.493H65.78zm73.346 4.76a6.102 6.102 0 1 0-2.44 0v31.852H97.631v78.106H85.306a6.102 6.102 0 1 0 0 2.44h14.766V53.546h39.053V19.253zm-14.767 53.82a6.102 6.102 0 1 1 0-2.44l31.853-.001v-51.38a6.102 6.102 0 1 1 2.44 0v53.82h-34.293zm19.527-78.106a6.102 6.102 0 1 1 0-2.44h34.293v53.818a6.102 6.102 0 1 1-2.44 0l-.001-51.379h-31.852zM268.61 324.474a6.102 6.102 0 1 1 0 2.44H119.6V344h-2.441v-19.526h151.45zm26.727-168.537a6.102 6.102 0 1 0-2.44 0l-.001 14.767h19.524v36.612h-19.525v80.545h58.579V344h2.44v-58.579h-58.578v-75.664h19.525v-41.494h-19.525v-12.326zM65.779-5.033a6.102 6.102 0 1 1 0-2.44h12.326V-24.56H58.58V-27h21.967v21.967H65.78zM202.463 34.02a6.102 6.102 0 1 1 0-2.44l31.853-.001V-27h61.02v2.44h-58.58v58.58h-34.293zm-58.578-58.58a6.102 6.102 0 1 1-11.96-2.44h2.527a3.661 3.661 0 1 0 6.906 0h75.872v41.493h-21.967V-.273a6.102 6.102 0 1 1 2.44 0v12.326h17.086V-24.56h-70.904zm0 117.159a6.102 6.102 0 1 1 0-2.44l23.31-.001 39.052-39.053h47.596V-.273a6.102 6.102 0 1 1 2.44 0v53.82h-49.025l-39.053 39.052h-24.321zm34.293 109.957a6.102 6.102 0 1 1-2.44 0l-.001-91.399v-1.978l38.547-38.547h59.084V-.273a6.102 6.102 0 1 1 2.44 0l.001 73.345h-60.514l-37.117 37.118v92.366zm19.526 39.053a6.102 6.102 0 1 1-2.44 0V120.162l30.004-30.004H366.24a6.11 6.11 0 0 1 4.76-4.76v2.527a3.663 3.663 0 0 0 0 6.906v2.527a6.11 6.11 0 0 1-4.76-4.76H226.28l-28.575 28.575V241.61zM21.967 163.504a6.102 6.102 0 1 1-2.44 0v-4.29l58.578-58.578V31.579h39.053V-27h2.44v61.02H80.547v67.627l-58.579 58.579v3.278zM61.02 38.779a6.102 6.102 0 1 0-2.44 0l-.001 52.094L0 149.452v79.83h34.293a6.102 6.102 0 1 0 0-2.44H2.441v-76.38L61.02 91.885V38.779zM41.493 58.306a6.102 6.102 0 1 0-2.44 0V81.11L0 120.162v3.452l41.493-41.493V58.306zM14.767 12.053a6.102 6.102 0 1 1 0 2.44h-3.278L0 25.983V22.53l10.478-10.478h4.289zm324.38 21.967a6.102 6.102 0 1 1 0-2.44l22.805-.001L371 22.53v3.451l-8.037 8.038h-23.815zm-19.526 195.263a6.102 6.102 0 1 1 0-2.44h31.853v-87.154L371 120.162v3.452L353.914 140.7v88.583h-34.293zM65.78 268.336a6.102 6.102 0 1 1 0-2.44l12.326-.001V238.33l-28.574-28.574H26.727a6.102 6.102 0 1 1 0-2.44l21.836-.001h1.979l30.004 30.004v31.016H65.78zm183.304 17.085a6.102 6.102 0 1 1 0 2.44H117.158V218.79l-48.086-48.086h-22.82a6.102 6.102 0 1 1 0-2.44h23.801l49.546 49.545v67.612h129.484zm-183.304 2.44a6.102 6.102 0 1 1 0-2.44h31.853v-56.853L59.294 190.23H26.727a6.102 6.102 0 1 1 0-2.44h33.578l39.767 39.767v60.305H65.78zm52.6-192.822a3.661 3.661 0 1 0 0-7.322 3.661 3.661 0 0 0 0 7.322zm0-19.526a3.661 3.661 0 1 0 0-7.322 3.661 3.661 0 0 0 0 7.322zm19.526 19.526a3.661 3.661 0 1 0 0-7.322 3.661 3.661 0 0 0 0 7.322zm19.526 19.527a3.661 3.661 0 1 0 0-7.323 3.661 3.661 0 0 0 0 7.323zm0 19.526a3.661 3.661 0 1 0 0-7.322 3.661 3.661 0 0 0 0 7.322zm-58.579 39.053a3.661 3.661 0 1 0 0-7.323 3.661 3.661 0 0 0 0 7.323zm19.526 19.526a3.661 3.661 0 1 0 0-7.322 3.661 3.661 0 0 0 0 7.322zm39.053 58.579a3.661 3.661 0 1 0 0-7.322 3.661 3.661 0 0 0 0 7.322zm-19.526 19.526a3.661 3.661 0 1 0 0-7.322 3.661 3.661 0 0 0 0 7.322zm39.052-19.526a3.661 3.661 0 1 0 0-7.322 3.661 3.661 0 0 0 0 7.322zm0-39.053a3.661 3.661 0 1 0 0-7.322 3.661 3.661 0 0 0 0 7.322zm19.527 39.053a3.661 3.661 0 1 0 0-7.322 3.661 3.661 0 0 0 0 7.322zm39.052 19.526a3.661 3.661 0 1 0 0-7.322 3.661 3.661 0 0 0 0 7.322zm0-19.526a3.661 3.661 0 1 0 0-7.322 3.661 3.661 0 0 0 0 7.322zm-19.526-78.105a3.661 3.661 0 1 0 0-7.323 3.661 3.661 0 0 0 0 7.323zm19.526 0a3.661 3.661 0 1 0 0-7.323 3.661 3.661 0 0 0 0 7.323zm19.526 117.158a3.661 3.661 0 1 0 0-7.323 3.661 3.661 0 0 0 0 7.323zm0 19.526a3.661 3.661 0 1 0 0-7.322 3.661 3.661 0 0 0 0 7.322zm19.527 19.526a3.661 3.661 0 1 0 0-7.322 3.661 3.661 0 0 0 0 7.322zm19.526-175.737a3.661 3.661 0 1 0 0-7.322 3.661 3.661 0 0 0 0 7.322zm0 39.053a3.661 3.661 0 1 0 0-7.322 3.661 3.661 0 0 0 0 7.322zm19.526-39.053a3.661 3.661 0 1 0 0-7.322 3.661 3.661 0 0 0 0 7.322zm19.527-19.526a3.661 3.661 0 1 0 0-7.322 3.661 3.661 0 0 0 0 7.322zm-117.158 0a3.661 3.661 0 1 0 0-7.322 3.661 3.661 0 0 0 0 7.322zm0 19.526a3.661 3.661 0 1 0 0-7.322 3.661 3.661 0 0 0 0 7.322zm19.526-39.052a3.661 3.661 0 1 0 0-7.323 3.661 3.661 0 0 0 0 7.323zm117.158 0a3.661 3.661 0 1 0 0-7.323 3.661 3.661 0 0 0 0 7.323zM333.168 36.46a3.661 3.661 0 1 0 0-7.323 3.661 3.661 0 0 0 0 7.323zm19.526-19.527a3.661 3.661 0 1 0 0-7.322 3.661 3.661 0 0 0 0 7.322zm-39.053 0a3.661 3.661 0 1 0 0-7.322 3.661 3.661 0 0 0 0 7.322zm0-19.526a3.661 3.661 0 1 0 0-7.322 3.661 3.661 0 0 0 0 7.322zm-19.526 0a3.661 3.661 0 1 0 0-7.322 3.661 3.661 0 0 0 0 7.322zm-19.526 0a3.661 3.661 0 1 0 0-7.322 3.661 3.661 0 0 0 0 7.322zm-19.526 0a3.661 3.661 0 1 0 0-7.322 3.661 3.661 0 0 0 0 7.322zM59.798 16.934a3.661 3.661 0 1 0 0-7.322 3.661 3.661 0 0 0 0 7.322zm-39.052 0a3.661 3.661 0 1 0 0-7.322 3.661 3.661 0 0 0 0 7.322zm39.052 19.527a3.661 3.661 0 1 0 0-7.323 3.661 3.661 0 0 0 0 7.323zM40.273 55.987a3.661 3.661 0 1 0 0-7.323 3.661 3.661 0 0 0 0 7.323zm19.526-58.58a3.661 3.661 0 1 0 0-7.321 3.661 3.661 0 0 0 0 7.322zm0 292.896a3.661 3.661 0 1 0 0-7.323 3.661 3.661 0 0 0 0 7.323zm19.527 39.052a3.661 3.661 0 1 0 0-7.322 3.661 3.661 0 0 0 0 7.322zM59.799 251.25a3.661 3.661 0 1 0 0-7.322 3.661 3.661 0 0 0 0 7.322zm0 19.526a3.661 3.661 0 1 0 0-7.322 3.661 3.661 0 0 0 0 7.322zm-19.526-39.052a3.661 3.661 0 1 0 0-7.323 3.661 3.661 0 0 0 0 7.323zm97.632-214.79a3.661 3.661 0 1 0 0-7.322 3.661 3.661 0 0 0 0 7.322zm19.526 0a3.661 3.661 0 1 0 0-7.322 3.661 3.661 0 0 0 0 7.322zM137.905-2.592a3.661 3.661 0 1 0 0-7.322 3.661 3.661 0 0 0 0 7.322zm39.052 58.579a3.661 3.661 0 1 0 0-7.323 3.661 3.661 0 0 0 0 7.323zm19.527-19.526a3.661 3.661 0 1 0 0-7.323 3.661 3.661 0 0 0 0 7.323zm0-39.053a3.661 3.661 0 1 0 0-7.322 3.661 3.661 0 0 0 0 7.322zm136.684 214.79a3.661 3.661 0 1 0 0-7.323 3.661 3.661 0 0 0 0 7.322zm-19.527 19.526a3.661 3.661 0 1 0 0-7.323 3.661 3.661 0 0 0 0 7.323zm0 19.526a3.661 3.661 0 1 0 0-7.322 3.661 3.661 0 0 0 0 7.322zm0 19.526a3.661 3.661 0 1 0 0-7.322 3.661 3.661 0 0 0 0 7.322zM20.747 192.671a3.661 3.661 0 1 0 0-7.322 3.661 3.661 0 0 0 0 7.322zm0 19.526a3.661 3.661 0 1 0 0-7.322 3.661 3.661 0 0 0 0 7.322zm0-39.052a3.661 3.661 0 1 0 0-7.323 3.661 3.661 0 0 0 0 7.323zm19.526 0a3.661 3.661 0 1 0 0-7.323 3.661 3.661 0 0 0 0 7.323zM20.747 75.513a3.661 3.661 0 1 0 0-7.322 3.661 3.661 0 0 0 0 7.322zm39.052 78.105a3.661 3.661 0 1 0 0-7.322 3.661 3.661 0 0 0 0 7.322zm19.527-19.526a3.661 3.661 0 1 0 0-7.322 3.661 3.661 0 0 0 0 7.322zM41.493 21.563V-27h-2.44v49.53L10.478 51.106H0v2.441h11.49l30.003-30.004v-1.979zM2.441 339.24v-51.378h17.085V344h2.441v-58.579H0v56.347A3.663 3.663 0 0 1 4.673 344H7.2a6.11 6.11 0 0 0-4.76-4.76zm39.052-72.125V344h-2.44v-75.664H0v-2.441h41.493v1.22zM20.747-5.033h1.22V-27h-2.44v19.526H0v2.441h20.747zm333.167-2.44V-27h-2.44v21.967H371v-2.44h-17.086zm-39.052 333.167V344h-2.44v-17.086h-17.086V344h-2.441v-19.526h21.967v1.22zM0 85.398a6.102 6.102 0 1 1 0 11.96v-2.527a3.661 3.661 0 1 0 0-6.906v-2.527zm97.632 219.55h2.44V344h-2.44v-39.053zM143.885 344a6.104 6.104 0 0 0-11.96 0h2.527a3.663 3.663 0 0 1 6.905 0h2.528zM7.2-27A6.102 6.102 0 0 1 0-19.8v-2.527A3.661 3.661 0 0 0 4.673-27H7.2zm359.04 0a6.104 6.104 0 0 0 4.76 7.2v-2.527A3.663 3.663 0 0 1 368.768-27h-2.528zM371 339.24a6.11 6.11 0 0 0-4.76 4.76h2.528a3.671 3.671 0 0 1 2.232-2.232v-2.528z" fill="#F8FDFD"/></svg>