<?xml version="1.0" encoding="UTF-8"?>
<svg width="50px" height="50px" viewBox="0 0 50 50" version="1.1" xmlns="http://www.w3.org/2000/svg" xmlns:xlink="http://www.w3.org/1999/xlink">
    <!-- Generator: Sketch 43.1 (39012) - http://www.bohemiancoding.com/sketch -->
    <title>Artboard</title>
    <desc>Created with Sketch.</desc>
    <defs></defs>
    <g id="Page-1" stroke="none" stroke-width="1" fill="none" fill-rule="evenodd">
        <g id="Artboard">
            <g id="Group">
                <rect id="Rectangle" stroke="#ECF0F1" stroke-width="4" x="2" y="2" width="46" height="46" rx="16"></rect>
                <path d="M11,34.2225206 L22.3986546,17.6233871 L11.2192049,17.6233871 L11.2192049,16 L25.6136597,16 L14.2880734,32.5991335 L25.4675231,32.5991335 L25.4675231,34.2225206 L11,34.2225206 Z M11,36.2225206 L22.3986546,19.6233871 L11.2192049,19.6233871 L11.2192049,18 L25.6136597,18 L14.2880734,34.5991335 L25.4675231,34.5991335 L25.4675231,36.2225206 L11,36.2225206 Z M28.9896551,24.5633672 C28.3441672,24.2386881 27.8179621,23.7652049 27.411024,23.1429034 C27.004086,22.5206019 26.80062,21.8983097 26.80062,21.2760082 L26.80062,20.0584678 C26.8567494,19.5714493 26.9970708,19.1047301 27.2215883,18.6582964 C27.4461058,18.2118627 27.7477968,17.8195481 28.1266701,17.4813408 C28.5055435,17.1431334 28.97562,16.8658076 29.5369139,16.6493549 C30.0982078,16.4329022 30.743686,16.3246774 31.473368,16.3246774 L39.3033782,16.3246774 L39.3033782,17.9886492 L31.3049807,17.9886492 C30.1543283,17.9886492 29.3895769,18.252447 29.0107035,18.7800505 C28.6318302,19.3076539 28.4283642,20.0178787 28.4002995,20.9107461 C28.4283642,21.3436515 28.5265892,21.722438 28.6949773,22.0471171 C28.8633655,22.3717961 29.1580403,22.6694141 29.5790107,22.93998 L37.2406336,26.1055849 C37.4932158,26.2138113 37.7738586,26.3558562 38.0825702,26.5317241 C38.3912818,26.7075919 38.6789406,26.9510975 38.9455552,27.2622483 C39.2121698,27.573399 39.4366839,27.9792418 39.6191044,28.4797886 C39.801525,28.9803355 39.8787017,29.6229198 39.850637,30.4075609 C39.7945076,30.9757492 39.6822505,31.4965807 39.5138624,31.970071 C39.3454742,32.4435613 39.0437833,32.8426399 38.6087805,33.167319 C38.1737778,33.491998 37.5844281,33.7490318 36.8407137,33.9384279 C36.0969994,34.127824 35.1498302,34.2225206 33.9991778,34.2225206 L26.7164264,34.2225206 L26.7164264,32.5585488 L33.8728873,32.5585488 C35.1638632,32.5585488 36.2162734,32.4165039 37.0301495,32.1324097 C37.8440256,31.8483155 38.2509575,31.2733717 38.2509575,30.4075609 C38.2509575,29.9205423 38.2158772,29.5214636 38.1457154,29.2103128 C38.0755537,28.8991621 37.9562805,28.6421284 37.7878924,28.439204 C37.6195042,28.2362795 37.4020061,28.0604144 37.1353915,27.9116031 C36.868777,27.7627919 36.5390218,27.5936908 36.1461161,27.4042947 L28.9896551,24.5633672 Z M28.9896551,27.2386897 C28.3441672,26.9140107 27.8179621,26.4405275 27.411024,25.818226 C27.004086,25.1959245 26.80062,24.5736323 26.80062,23.9513308 L26.80062,22.7337904 C26.8567494,22.2467718 26.9970708,21.7800527 27.2215883,21.333619 C27.4461058,20.8871853 27.7477968,20.4948707 28.1266701,20.1566633 C28.5055435,19.818456 28.97562,19.5411301 29.5369139,19.3246774 C30.0982078,19.1082247 30.743686,19 31.473368,19 L39.3033782,19 L39.3033782,20.6639718 L31.3049807,20.6639718 C30.1543283,20.6639718 29.3895769,20.9277696 29.0107035,21.455373 C28.6318302,21.9829765 28.4283642,22.6932013 28.4002995,23.5860687 C28.4283642,24.0189741 28.5265892,24.3977606 28.6949773,24.7224397 C28.8633655,25.0471187 29.1580403,25.3447367 29.5790107,25.6153026 L37.2406336,28.7809075 C37.4932158,28.8891339 37.7738586,29.0311788 38.0825702,29.2070466 C38.3912818,29.3829145 38.6789406,29.6264201 38.9455552,29.9375709 C39.2121698,30.2487216 39.4366839,30.6545643 39.6191044,31.1551112 C39.801525,31.6556581 39.8787017,32.2982424 39.850637,33.0828834 C39.7945076,33.6510718 39.6822505,34.1719033 39.5138624,34.6453936 C39.3454742,35.1188838 39.0437833,35.5179625 38.6087805,35.8426416 C38.1737778,36.1673206 37.5844281,36.4243543 36.8407137,36.6137505 C36.0969994,36.8031466 35.1498302,36.8978432 33.9991778,36.8978432 L26.7164264,36.8978432 L26.7164264,35.2338714 L33.8728873,35.2338714 C35.1638632,35.2338714 36.2162734,35.0918264 37.0301495,34.8077323 C37.8440256,34.5236381 38.2509575,33.9486942 38.2509575,33.0828834 C38.2509575,32.5958649 38.2158772,32.1967862 38.1457154,31.8856354 C38.0755537,31.5744847 37.9562805,31.3174509 37.7878924,31.1145265 C37.6195042,30.9116021 37.4020061,30.7357369 37.1353915,30.5869257 C36.868777,30.4381145 36.5390218,30.2690133 36.1461161,30.0796172 L28.9896551,27.2386897 Z" id="zs" fill="#ECF0F1"></path>
            </g>
        </g>
    </g>
</svg>