<?xml version="1.0" encoding="UTF-8"?>
<svg width="32px" height="32px" viewBox="0 0 32 32" version="1.1" xmlns="http://www.w3.org/2000/svg" xmlns:xlink="http://www.w3.org/1999/xlink">
    <!-- Generator: Sketch 44.1 (41455) - http://www.bohemiancoding.com/sketch -->
    <title>Fill 183</title>
    <desc>Created with Sketch.</desc>
    <defs></defs>
    <g id="Page-1" stroke="none" stroke-width="1" fill="none" fill-rule="evenodd">
        <g id="Group" transform="translate(-1.000000, -416.000000)" fill="#444444">
            <path d="M21.1545,426.656 L19.6485,426.657 C18.4675,426.657 18.2385,427.218 18.2385,428.041 L18.2385,429.857 L21.0555,429.857 L20.6885,432.702 L18.2385,432.702 L18.2385,440 L15.3015,440 L15.3015,432.702 L12.8455,432.702 L12.8455,429.857 L15.3015,429.857 L15.3015,427.76 C15.3015,425.325 16.7885,424 18.9595,424 C19.9995,424 20.8935,424.077 21.1545,424.112 L21.1545,426.656 Z M16.9995,416 C8.1635,416 0.9995,423.163 0.9995,432 C0.9995,440.836 8.1635,448 16.9995,448 C25.8365,448 32.9995,440.836 32.9995,432 C32.9995,423.163 25.8365,416 16.9995,416 L16.9995,416 Z" id="Fill-183"></path>
        </g>
    </g>
</svg>