<?xml version="1.0" encoding="UTF-8"?>
<svg width="43px" height="42px" viewBox="0 0 43 42" version="1.1" xmlns="http://www.w3.org/2000/svg" xmlns:xlink="http://www.w3.org/1999/xlink">
    <!-- Generator: Sketch 44.1 (41455) - http://www.bohemiancoding.com/sketch -->
    <title>Fill 34</title>
    <desc>Created with Sketch.</desc>
    <defs></defs>
    <g id="Page-1" stroke="none" stroke-width="1" fill="none" fill-rule="evenodd">
        <g id="Store-Icons" transform="translate(-195.000000, -98.000000)" stroke="#121212" fill="#010101">
            <path d="M216.498719,99 C205.178875,99 196,108.177594 196,119.501281 C196,128.557156 201.87325,136.240813 210.020719,138.951938 C211.045719,139.140281 211.419844,138.507344 211.419844,137.964094 C211.419844,137.477219 211.401906,136.188281 211.391656,134.477813 C205.688812,135.716781 204.485719,131.729531 204.485719,131.729531 C203.55425,129.361781 202.210219,128.731406 202.210219,128.731406 C200.348563,127.459125 202.351156,127.48475 202.351156,127.48475 C204.407562,127.629531 205.490219,129.597531 205.490219,129.597531 C207.319844,132.730188 210.2885,131.825625 211.457,131.300313 C211.642781,129.9755 212.173219,129.072219 212.75875,128.559719 C208.206469,128.042094 203.421,126.284219 203.421,118.428875 C203.421,116.190531 204.219219,114.360906 205.531219,112.927188 C205.319813,112.408281 204.616406,110.324969 205.731094,107.502375 C205.731094,107.502375 207.453094,106.951438 211.368594,109.603625 C213.00475,109.148781 214.7575,108.922 216.501281,108.913031 C218.2425,108.922 219.996531,109.148781 221.633969,109.603625 C225.546906,106.951438 227.265062,107.502375 227.265062,107.502375 C228.383594,110.324969 227.680187,112.408281 227.468781,112.927188 C228.783344,114.360906 229.576437,116.190531 229.576437,118.428875 C229.576437,126.303437 224.783281,128.036969 220.216906,128.544344 C220.952344,129.177281 221.608344,130.427781 221.608344,132.340688 C221.608344,135.081281 221.582719,137.291437 221.582719,137.964094 C221.582719,138.512469 221.951719,139.150531 222.992094,138.949375 C231.131875,136.233125 237,128.554594 237,119.501281 C237,108.177594 227.821125,99 216.498719,99" id="Fill-34"></path>
        </g>
    </g>
</svg>