<?xml version="1.0" encoding="UTF-8"?>
<svg width="32px" height="32px" viewBox="0 0 32 32" version="1.1" xmlns="http://www.w3.org/2000/svg" xmlns:xlink="http://www.w3.org/1999/xlink">
    <!-- Generator: Sketch 44.1 (41455) - http://www.bohemiancoding.com/sketch -->
    <title>Fill 209</title>
    <desc>Created with Sketch.</desc>
    <defs></defs>
    <g id="Page-1" stroke="none" stroke-width="1" fill="none" fill-rule="evenodd">
        <g id="Group" transform="translate(-157.000000, -468.000000)" fill="#444444">
            <path d="M181,491.9854 L177.685,491.9854 L177.685,486.7974 C177.685,485.5604 177.663,483.9694 175.962,483.9694 C174.237,483.9694 173.974,485.3174 173.974,486.7094 L173.974,491.9854 L170.662,491.9854 L170.662,481.3174 L173.84,481.3174 L173.84,482.7764 L173.886,482.7764 C174.328,481.9374 175.41,481.0524 177.023,481.0524 C180.38,481.0524 181,483.2614 181,486.1344 L181,491.9854 Z M166.924,479.8604 C165.859,479.8604 165,478.9984 165,477.9374 C165,476.8764 165.859,476.0144 166.924,476.0144 C167.984,476.0144 168.845,476.8764 168.845,477.9374 C168.845,478.9984 167.984,479.8604 166.924,479.8604 L166.924,479.8604 Z M168.582,491.9854 L165.263,491.9854 L165.263,481.3174 L168.582,481.3174 L168.582,491.9854 Z M173,468.0004 C164.163,468.0004 157,475.1634 157,484.0004 C157,492.8364 164.163,500.0004 173,500.0004 C181.837,500.0004 189,492.8364 189,484.0004 C189,475.1634 181.837,468.0004 173,468.0004 L173,468.0004 Z" id="Fill-209"></path>
        </g>
    </g>
</svg>