<?xml version="1.0" encoding="UTF-8"?>
<svg width="32px" height="32px" viewBox="0 0 32 32" version="1.1" xmlns="http://www.w3.org/2000/svg" xmlns:xlink="http://www.w3.org/1999/xlink">
    <!-- Generator: Sketch 44.1 (41455) - http://www.bohemiancoding.com/sketch -->
    <title>Mail</title>
    <desc>Created with Sketch.</desc>
    <defs></defs>
    <g id="Page-1" stroke="none" stroke-width="1" fill="none" fill-rule="evenodd">
        <g id="Littie-Icons" transform="translate(-60.000000, -134.000000)">
            <g id="Mail" transform="translate(60.000000, 134.000000)">
                <rect id="Rectangle-2" fill="#444444" x="0" y="0" width="32" height="32" rx="16"></rect>
                <g id="Rectangle-12-+-Path-52" transform="translate(6.000000, 9.662802)" stroke="#FFFFFF">
                    <path d="M16.4567358,1.30427553 L3.91026888,1.27181506 L2.34246271,1.46779083 C0.960615677,1.64052171 0.695217954,1.67369642 0.343570997,1.71765229 L0.5,13.8130632 C0.5,14.9296493 1.40017466,15.8371982 2.50595062,15.8371982 L17.6013703,15.8371982 C18.7070482,15.8371982 19.6073209,14.9309397 19.6073209,13.8130632 L19.6073209,1.69809867 C19.442094,1.67744531 19.1806963,1.64477059 17.9008225,1.48478636 C17.1131388,1.38632591 17.0969805,1.38430612 16.4669003,1.3055461 L16.4567358,1.30427553 Z" id="Rectangle-12"></path>
                    <polyline id="Path-52" points="3.14176889 13.1954293 10.0536604 10.0536604 16.965552 13.1954293"></polyline>
                </g>
                <path d="M8.51341511,5.37756408 C8.51341511,4.27393342 9.41160645,3.37926399 10.5159878,3.37926399 L21.5913331,3.37926399 C22.6973234,3.37926399 23.5939058,4.27145929 23.5939058,5.37756408 L23.5939058,13.4329244 L16.0536604,17.2030471 L8.51341511,13.4329244 L8.51341511,5.37756408 Z M11.0268302,4.63597155 L11.0268302,5.8926791 L16.0536604,5.8926791 L16.0536604,4.63597155 L11.0268302,4.63597155 Z M11.0268302,7.14938666 L11.0268302,8.40609422 L21.0804907,8.40609422 L21.0804907,7.14938666 L11.0268302,7.14938666 Z M11.0268302,9.66280177 L11.0268302,10.9195093 L21.0804907,10.9195093 L21.0804907,9.66280177 L11.0268302,9.66280177 Z M12.2835378,12.1762169 L12.2835378,13.4329244 L19.8237831,13.4329244 L19.8237831,12.1762169 L12.2835378,12.1762169 Z" id="Rectangle-13" fill="#FFFFFF"></path>
            </g>
        </g>
    </g>
</svg>