<?xml version="1.0" encoding="UTF-8"?>
<svg width="44px" height="44px" viewBox="0 0 44 44" version="1.1" xmlns="http://www.w3.org/2000/svg" xmlns:xlink="http://www.w3.org/1999/xlink">
    <!-- Generator: Sketch 51.2 (57519) - http://www.bohemiancoding.com/sketch -->
    <title>medium</title>
    <desc>Created with Sketch.</desc>
    <defs></defs>
    <g id="Social-Icons" stroke="none" stroke-width="1" fill="none" fill-rule="evenodd">
        <g transform="translate(-240.000000, -120.000000)" id="medium">
            <g transform="translate(240.000000, 120.000000)">
                <rect id="Rectangle" x="0" y="0" width="44" height="44"></rect>
                <circle id="Oval" stroke="#000000" stroke-width="2" cx="22" cy="22" r="21"></circle>
                <path d="M33,31.1587302 L24.6190476,31.1587302 L26.288254,29.3107302 C26.3469206,29.2520635 26.3650794,29.0320635 26.3650794,28.7031111 L26.3650794,17.1904762 L20.8713651,31.1587302 L14.8978413,18.1486984 C14.7462857,17.8190476 14.6184762,17.3895238 14.4920635,17.0347302 L14.4920635,26.7028571 C14.4920635,27.1079365 14.467619,27.1589206 14.7462857,27.5381587 L17.2857143,31.1587302 L11,31.1587302 L13.5422222,27.5388571 C13.8208889,27.159619 13.7936508,27.1086349 13.7936508,26.7035556 L13.7936508,16.6806349 C13.7936508,16.2497143 13.86,16.1987302 13.6574603,15.9466032 L11.6984127,13 L17.6314286,13 L22.768254,24.384127 L27.2311111,13 L33,13 L31.4634921,14.9206349 C31.2358095,15.1483175 31.2539683,15.3389841 31.2539683,15.6930794 L31.2539683,28.7038095 C31.2539683,29.0320635 31.2574603,29.227619 31.3503492,29.3114286 L33,31.1587302 Z" id="Path" fill="#000000"></path>
            </g>
        </g>
    </g>
</svg>