<?xml version="1.0" encoding="UTF-8"?>
<svg width="205px" height="143px" viewBox="0 0 205 143" version="1.1" xmlns="http://www.w3.org/2000/svg" xmlns:xlink="http://www.w3.org/1999/xlink" style="background: #FFFFFF;">
    <!-- Generator: Sketch 44.1 (41455) - http://www.bohemiancoding.com/sketch -->
    <title>Artboard</title>
    <desc>Created with Sketch.</desc>
    <defs></defs>
    <g id="Page-1" stroke="none" stroke-width="1" fill="none" fill-rule="evenodd">
        <g id="Artboard" fill-rule="nonzero" fill="#F8FDFD">
            <g id="circuit-board" transform="translate(0.000000, -27.000000)">
                <path d="M53.81943,273.368421 C54.3848026,270.583187 56.8472586,268.486842 59.7993421,268.486842 C63.1693691,268.486842 65.9013158,271.218788 65.9013158,274.588816 C65.9013158,277.958843 63.1693691,280.690789 59.7993421,280.690789 C56.8472586,280.690789 54.3848026,278.594444 53.81943,275.809211 L0,275.809211 L0,273.368421 L53.81943,273.368421 L53.81943,273.368421 Z M249.082588,331.947368 C249.64796,329.162135 252.110416,327.065789 255.0625,327.065789 C258.432527,327.065789 261.164474,329.797736 261.164474,333.167763 C261.164474,336.53779 258.432527,339.269737 255.0625,339.269737 C252.110416,339.269737 249.64796,337.173392 249.082588,334.388158 L100.072368,334.388158 L100.072368,331.947368 L249.082588,331.947368 L249.082588,331.947368 Z M319.62136,275.809211 C319.055987,278.594444 316.593531,280.690789 313.641447,280.690789 C310.27142,280.690789 307.539474,277.958843 307.539474,274.588816 C307.539474,271.218788 310.27142,268.486842 313.641447,268.486842 C316.593531,268.486842 319.055987,270.583187 319.62136,273.368421 L371,273.368421 L371,275.809211 L319.62136,275.809211 L319.62136,275.809211 Z M319.62136,295.335526 C319.055987,298.12076 316.593531,300.217105 313.641447,300.217105 C310.27142,300.217105 307.539474,297.485159 307.539474,294.115132 C307.539474,290.745104 310.27142,288.013158 313.641447,288.013158 C316.593531,288.013158 319.055987,290.109503 319.62136,292.894737 L371,292.894737 L371,295.335526 L319.62136,295.335526 L319.62136,295.335526 Z M327.187851,156.210526 C327.753223,153.425293 330.21568,151.328947 333.167763,151.328947 C336.53779,151.328947 339.269737,154.060894 339.269737,157.430921 C339.269737,160.800948 336.53779,163.532895 333.167763,163.532895 C330.21568,163.532895 327.753223,161.436549 327.187851,158.651316 L221.989781,158.651316 C221.424408,161.436549 218.961952,163.532895 216.009868,163.532895 C212.639841,163.532895 209.907895,160.800948 209.907895,157.430921 C209.907895,154.060894 212.639841,151.328947 216.009868,151.328947 C218.961952,151.328947 221.424408,153.425293 221.989781,156.210526 L327.187851,156.210526 L327.187851,156.210526 Z M14.7667984,97.6315789 C15.332171,94.8463449 17.794627,92.75 20.7467105,92.75 C24.1167375,92.75 26.8486842,95.4819467 26.8486842,98.8519737 C26.8486842,102.222001 24.1167375,104.953947 20.7467105,104.953947 C17.794627,104.953947 15.332171,102.857602 14.7667984,100.072368 L0,100.072368 L0,97.6315789 L14.7667984,97.6315789 L14.7667984,97.6315789 Z M241.516096,139.125 C240.950724,141.910234 238.488268,144.006579 235.536184,144.006579 C232.166157,144.006579 229.434211,141.274633 229.434211,137.904605 C229.434211,134.534578 232.166157,131.802632 235.536184,131.802632 C238.488268,131.802632 240.950724,133.898977 241.516096,136.684211 L346.714167,136.684211 C347.279539,133.898977 349.741995,131.802632 352.694079,131.802632 C356.064106,131.802632 358.796053,134.534578 358.796053,137.904605 C358.796053,141.274633 356.064106,144.006579 352.694079,144.006579 C349.741995,144.006579 347.279539,141.910234 346.714167,139.125 L241.516096,139.125 L241.516096,139.125 Z M314.861842,14.7667984 C317.647076,15.332171 319.743421,17.794627 319.743421,20.7467105 C319.743421,24.1167375 317.011475,26.8486842 313.641447,26.8486842 C310.27142,26.8486842 307.539474,24.1167375 307.539474,20.7467105 C307.539474,17.794627 309.635819,15.332171 312.421053,14.7667984 L312.421053,0 L314.861842,0 L314.861842,14.7667984 L314.861842,14.7667984 Z M236.756579,268.608904 C239.541813,269.174276 241.638158,271.636732 241.638158,274.588816 C241.638158,277.958843 238.906212,280.690789 235.536184,280.690789 C232.166157,280.690789 229.434211,277.958843 229.434211,274.588816 C229.434211,271.636732 231.530556,269.174276 234.315789,268.608904 L234.315789,202.463465 C231.530556,201.898093 229.434211,199.435636 229.434211,196.483553 C229.434211,193.113525 232.166157,190.381579 235.536184,190.381579 C238.906212,190.381579 241.638158,193.113525 241.638158,196.483553 C241.638158,199.435636 239.541813,201.898093 236.756579,202.463465 L236.756579,268.608904 L236.756579,268.608904 Z M295.335526,26.7266226 C298.12076,26.16125 300.217105,23.698794 300.217105,20.7467105 C300.217105,17.3766836 297.485159,14.6447368 294.115132,14.6447368 C290.745104,14.6447368 288.013158,17.3766836 288.013158,20.7467105 C288.013158,23.698794 290.109503,26.16125 292.894737,26.7266226 L292.894737,98.8519737 L292.894737,100.072368 L371,100.072368 L371,97.6315789 L295.335526,97.6315789 L295.335526,97.6315789 L295.335526,26.7266226 L295.335526,26.7266226 Z M314.861842,46.2529384 C317.647076,45.6875658 319.743421,43.2251098 319.743421,40.2730263 C319.743421,36.9029994 317.011475,34.1710526 313.641447,34.1710526 C310.27142,34.1710526 307.539474,36.9029994 307.539474,40.2730263 C307.539474,43.2251098 309.635819,45.6875658 312.421053,46.2529384 L312.421053,79.3256579 L312.421053,80.5460526 L371,80.5460526 L371,78.1052632 L314.861842,78.1052632 L314.861842,78.1052632 L314.861842,46.2529384 L314.861842,46.2529384 Z M158.651316,163.410833 C161.436549,162.845461 163.532895,160.383005 163.532895,157.430921 C163.532895,154.060894 160.800948,151.328947 157.430921,151.328947 C154.060894,151.328947 151.328947,154.060894 151.328947,157.430921 C151.328947,160.383005 153.425293,162.845461 156.210526,163.410833 L156.210526,255.0625 L156.210526,256.282895 L175.736842,256.282895 L175.736842,256.282895 L175.736842,268.608904 C172.951608,269.174276 170.855263,271.636732 170.855263,274.588816 C170.855263,277.958843 173.58721,280.690789 176.957237,280.690789 C180.327264,280.690789 183.059211,277.958843 183.059211,274.588816 C183.059211,271.636732 180.962865,269.174276 178.177632,268.608904 L178.177632,253.842105 L176.957237,253.842105 L158.651316,253.842105 L158.651316,163.410833 L158.651316,163.410833 Z M151.451009,136.684211 C152.016381,133.898977 154.478837,131.802632 157.430921,131.802632 C160.800948,131.802632 163.532895,134.534578 163.532895,137.904605 C163.532895,141.274633 160.800948,144.006579 157.430921,144.006579 C154.478837,144.006579 152.016381,141.910234 151.451009,139.125 L139.125,139.125 L139.125,139.125 L139.125,197.703947 L137.294408,197.703947 L104.831886,197.703947 C104.266513,200.489181 101.804057,202.585526 98.8519737,202.585526 C95.4819467,202.585526 92.75,199.85358 92.75,196.483553 C92.75,193.113525 95.4819467,190.381579 98.8519737,190.381579 C101.804057,190.381579 104.266513,192.477924 104.831886,195.263158 L136.684211,195.263158 L136.684211,137.904605 L136.684211,136.684211 L151.451009,136.684211 L151.451009,136.684211 Z M143.884518,295.335526 C143.319145,298.12076 140.856689,300.217105 137.904605,300.217105 C134.534578,300.217105 131.802632,297.485159 131.802632,294.115132 C131.802632,290.745104 134.534578,288.013158 137.904605,288.013158 C140.856689,288.013158 143.319145,290.109503 143.884518,292.894737 L214.789474,292.894737 L214.789474,202.463465 C212.00424,201.898093 209.907895,199.435636 209.907895,196.483553 C209.907895,193.113525 212.639841,190.381579 216.009868,190.381579 C219.379896,190.381579 222.111842,193.113525 222.111842,196.483553 C222.111842,199.435636 220.015497,201.898093 217.230263,202.463465 L217.230263,295.335526 L216.009868,295.335526 L216.009868,295.335526 L143.884518,295.335526 L143.884518,295.335526 Z M124.358202,217.230263 C123.792829,220.015497 121.330373,222.111842 118.378289,222.111842 C115.008263,222.111842 112.276316,219.379896 112.276316,216.009868 C112.276316,212.639841 115.008263,209.907895 118.378289,209.907895 C121.330373,209.907895 123.792829,212.00424 124.358202,214.789474 L139.125,214.789474 L139.125,216.009868 L139.125,273.368421 L139.125,273.368421 L151.451009,273.368421 C152.016381,270.583187 154.478837,268.486842 157.430921,268.486842 C160.800948,268.486842 163.532895,271.218788 163.532895,274.588816 C163.532895,277.958843 160.800948,280.690789 157.430921,280.690789 C154.478837,280.690789 152.016381,278.594444 151.451009,275.809211 L136.684211,275.809211 L136.684211,274.588816 L136.684211,217.230263 L124.358202,217.230263 L124.358202,217.230263 Z M80.5460526,346.714167 C83.3312867,347.279539 85.4276316,349.741995 85.4276316,352.694079 C85.4276316,356.064106 82.6956848,358.796053 79.3256579,358.796053 C75.9556309,358.796053 73.2236842,356.064106 73.2236842,352.694079 C73.2236842,349.741995 75.3200291,347.279539 78.1052632,346.714167 L78.1052632,334.388158 L61.0197368,334.388158 L61.0197368,371 L58.5789474,371 L58.5789474,331.947368 L59.7993421,331.947368 L59.7993421,331.947368 L78.7154605,331.947368 L80.5460526,331.947368 L80.5460526,346.714167 L80.5460526,346.714167 Z M288.135219,214.789474 C288.700592,212.00424 291.163048,209.907895 294.115132,209.907895 C297.485159,209.907895 300.217105,212.639841 300.217105,216.009868 C300.217105,219.379896 297.485159,222.111842 294.115132,222.111842 C291.163048,222.111842 288.700592,220.015497 288.135219,217.230263 L275.809211,217.230263 L275.809211,217.230263 L275.809211,331.947368 L334.388158,331.947368 L334.388158,333.167763 L334.388158,371 L331.947368,371 L331.947368,334.388158 L273.368421,334.388158 L273.368421,333.167763 L273.368421,216.009868 L273.368421,214.789474 L288.135219,214.789474 L288.135219,214.789474 Z M319.62136,178.177632 C319.055987,180.962865 316.593531,183.059211 313.641447,183.059211 C310.27142,183.059211 307.539474,180.327264 307.539474,176.957237 C307.539474,173.58721 310.27142,170.855263 313.641447,170.855263 C316.593531,170.855263 319.055987,172.951608 319.62136,175.736842 L334.388158,175.736842 L334.388158,177.567434 L334.388158,177.567434 L334.388158,229.556272 C337.173392,230.121644 339.269737,232.584101 339.269737,235.536184 C339.269737,238.906212 336.53779,241.638158 333.167763,241.638158 C329.797736,241.638158 327.065789,238.906212 327.065789,235.536184 C327.065789,232.584101 329.162135,230.121644 331.947368,229.556272 L331.947368,178.177632 L319.62136,178.177632 L319.62136,178.177632 Z M241.516096,295.335526 C240.950724,298.12076 238.488268,300.217105 235.536184,300.217105 C232.166157,300.217105 229.434211,297.485159 229.434211,294.115132 C229.434211,290.745104 232.166157,288.013158 235.536184,288.013158 C238.488268,288.013158 240.950724,290.109503 241.516096,292.894737 L253.842105,292.894737 L253.842105,292.894737 L253.842105,195.263158 L255.0625,195.263158 L273.368421,195.263158 L273.368421,178.177632 L221.989781,178.177632 C221.424408,180.962865 218.961952,183.059211 216.009868,183.059211 C212.639841,183.059211 209.907895,180.327264 209.907895,176.957237 C209.907895,173.58721 212.639841,170.855263 216.009868,170.855263 C218.961952,170.855263 221.424408,172.951608 221.989781,175.736842 L275.809211,175.736842 L275.809211,176.957237 L275.809211,197.703947 L274.588816,197.703947 L256.282895,197.703947 L256.282895,294.115132 L256.282895,295.335526 L241.516096,295.335526 L241.516096,295.335526 Z M346.714167,39.0526316 C347.279539,36.2673975 349.741995,34.1710526 352.694079,34.1710526 C356.064106,34.1710526 358.796053,36.9029994 358.796053,40.2730263 C358.796053,43.6430533 356.064106,46.375 352.694079,46.375 C349.741995,46.375 347.279539,44.2786551 346.714167,41.4934211 L331.947368,41.4934211 L331.947368,40.2730263 L331.947368,0 L334.388158,0 L334.388158,39.0526316 L334.388158,39.0526316 L346.714167,39.0526316 L346.714167,39.0526316 Z M119.598684,124.358202 C122.383918,123.792829 124.480263,121.330373 124.480263,118.378289 C124.480263,115.008263 121.748316,112.276316 118.378289,112.276316 C115.008263,112.276316 112.276316,115.008263 112.276316,118.378289 C112.276316,121.330373 114.372661,123.792829 117.157895,124.358202 L117.157895,175.736842 L65.7792542,175.736842 C65.2138816,172.951608 62.7514256,170.855263 59.7993421,170.855263 C56.4293152,170.855263 53.6973684,173.58721 53.6973684,176.957237 C53.6973684,180.327264 56.4293152,183.059211 59.7993421,183.059211 C62.7514256,183.059211 65.2138816,180.962865 65.7792542,178.177632 L117.768092,178.177632 L117.768092,178.177632 L119.598684,178.177632 L119.598684,124.358202 L119.598684,124.358202 Z M65.7792542,41.4934211 C65.2138816,44.2786551 62.7514256,46.375 59.7993421,46.375 C56.4293152,46.375 53.6973684,43.6430533 53.6973684,40.2730263 C53.6973684,36.9029994 56.4293152,34.1710526 59.7993421,34.1710526 C62.7514256,34.1710526 65.2138816,36.2673975 65.7792542,39.0526316 L97.6315789,39.0526316 L97.6315789,0 L100.072368,0 L100.072368,41.4934211 L98.8519737,41.4934211 L98.8519737,41.4934211 L65.7792542,41.4934211 L65.7792542,41.4934211 Z M139.125,46.2529384 C141.910234,45.6875658 144.006579,43.2251098 144.006579,40.2730263 C144.006579,36.9029994 141.274633,34.1710526 137.904605,34.1710526 C134.534578,34.1710526 131.802632,36.9029994 131.802632,40.2730263 C131.802632,43.2251098 133.898977,45.6875658 136.684211,46.2529384 L136.684211,78.1052632 L97.6315789,78.1052632 L97.6315789,79.3256579 L97.6315789,156.210526 L85.30557,156.210526 C84.7401974,153.425293 82.2777414,151.328947 79.3256579,151.328947 C75.9556309,151.328947 73.2236842,154.060894 73.2236842,157.430921 C73.2236842,160.800948 75.9556309,163.532895 79.3256579,163.532895 C82.2777414,163.532895 84.7401974,161.436549 85.30557,158.651316 L100.072368,158.651316 L100.072368,156.820724 L100.072368,80.5460526 L100.072368,80.5460526 L137.904605,80.5460526 L139.125,80.5460526 L139.125,46.2529384 L139.125,46.2529384 Z M124.358202,100.072368 C123.792829,102.857602 121.330373,104.953947 118.378289,104.953947 C115.008263,104.953947 112.276316,102.222001 112.276316,98.8519737 C112.276316,95.4819467 115.008263,92.75 118.378289,92.75 C121.330373,92.75 123.792829,94.8463449 124.358202,97.6315789 L156.210526,97.6315789 L156.210526,46.2529384 C153.425293,45.6875658 151.328947,43.2251098 151.328947,40.2730263 C151.328947,36.9029994 154.060894,34.1710526 157.430921,34.1710526 C160.800948,34.1710526 163.532895,36.9029994 163.532895,40.2730263 C163.532895,43.2251098 161.436549,45.6875658 158.651316,46.2529384 L158.651316,100.072368 L156.820724,100.072368 L156.820724,100.072368 L124.358202,100.072368 L124.358202,100.072368 Z M143.884518,21.9671053 C143.319145,24.7523393 140.856689,26.8486842 137.904605,26.8486842 C134.534578,26.8486842 131.802632,24.1167375 131.802632,20.7467105 C131.802632,17.3766836 134.534578,14.6447368 137.904605,14.6447368 C140.856689,14.6447368 143.319145,16.7410817 143.884518,19.5263158 L178.177632,19.5263158 L178.177632,20.7467105 L178.177632,20.7467105 L178.177632,73.3457458 C180.962865,73.9111184 183.059211,76.3735744 183.059211,79.3256579 C183.059211,82.6956848 180.327264,85.4276316 176.957237,85.4276316 C173.58721,85.4276316 170.855263,82.6956848 170.855263,79.3256579 C170.855263,76.3735744 172.951608,73.9111184 175.736842,73.3457458 L175.736842,21.9671053 L143.884518,21.9671053 L143.884518,21.9671053 Z M268.608904,351.473684 C269.174276,348.688451 271.636732,346.592105 274.588816,346.592105 C277.958843,346.592105 280.690789,349.324052 280.690789,352.694079 C280.690789,356.064106 277.958843,358.796053 274.588816,358.796053 C271.636732,358.796053 269.174276,356.699707 268.608904,353.914474 L119.598684,353.914474 L119.598684,371 L117.157895,371 L117.157895,351.473684 L118.378289,351.473684 L268.608904,351.473684 L268.608904,351.473684 Z M295.335526,182.937149 C298.12076,182.371777 300.217105,179.90932 300.217105,176.957237 C300.217105,173.58721 297.485159,170.855263 294.115132,170.855263 C290.745104,170.855263 288.013158,173.58721 288.013158,176.957237 C288.013158,179.90932 290.109503,182.371777 292.894737,182.937149 L292.894737,197.703947 L294.725329,197.703947 L312.421053,197.703947 L312.421053,234.315789 L294.725329,234.315789 L292.894737,234.315789 L292.894737,313.641447 L292.894737,314.861842 L351.473684,314.861842 L351.473684,371 L353.914474,371 L353.914474,313.641447 L353.914474,312.421053 L295.335526,312.421053 L295.335526,312.421053 L295.335526,236.756579 L313.641447,236.756579 L314.861842,236.756579 L314.861842,195.263158 L313.641447,195.263158 L295.335526,195.263158 L295.335526,182.937149 L295.335526,182.937149 Z M65.7792542,21.9671053 C65.2138816,24.7523393 62.7514256,26.8486842 59.7993421,26.8486842 C56.4293152,26.8486842 53.6973684,24.1167375 53.6973684,20.7467105 C53.6973684,17.3766836 56.4293152,14.6447368 59.7993421,14.6447368 C62.7514256,14.6447368 65.2138816,16.7410817 65.7792542,19.5263158 L78.1052632,19.5263158 L78.1052632,2.44078947 L58.5789474,2.44078947 L58.5789474,0 L78.7154605,0 L78.7154605,1.35491033e-16 L80.5460526,1.35491033e-16 L80.5460526,21.9671053 L79.3256579,21.9671053 L65.7792542,21.9671053 L65.7792542,21.9671053 Z M202.463465,61.0197368 C201.898093,63.8049709 199.435636,65.9013158 196.483553,65.9013158 C193.113525,65.9013158 190.381579,63.1693691 190.381579,59.7993421 C190.381579,56.4293152 193.113525,53.6973684 196.483553,53.6973684 C199.435636,53.6973684 201.898093,55.7937133 202.463465,58.5789474 L234.315789,58.5789474 L234.315789,1.22039474 L234.315789,0 L295.335526,0 L295.335526,2.44078947 L236.756579,2.44078947 L236.756579,2.44078947 L236.756579,61.0197368 L235.536184,61.0197368 L202.463465,61.0197368 L202.463465,61.0197368 Z M143.884518,2.44078947 C143.319145,5.22602355 140.856689,7.32236842 137.904605,7.32236842 C134.534578,7.32236842 131.802632,4.59042175 131.802632,1.22039474 C131.802632,0.802451229 131.84465,0.39432167 131.924693,2.53668711e-13 L134.45175,2.55701076e-13 C134.316833,0.381713754 134.243421,0.792481112 134.243421,1.22039474 C134.243421,3.24241094 135.882589,4.88157895 137.904605,4.88157895 C139.926621,4.88157895 141.565789,3.24241094 141.565789,1.22039474 C141.565789,0.792481112 141.492378,0.381713754 141.357461,-1.22213351e-12 L143.335351,2.55701076e-13 L215.399671,2.55701076e-13 L215.399671,2.55836567e-13 L217.230263,2.55836567e-13 L217.230263,41.4934211 L216.009868,41.4934211 L195.263158,41.4934211 L195.263158,40.2730263 L195.263158,26.7266226 C192.477924,26.16125 190.381579,23.698794 190.381579,20.7467105 C190.381579,17.3766836 193.113525,14.6447368 196.483553,14.6447368 C199.85358,14.6447368 202.585526,17.3766836 202.585526,20.7467105 C202.585526,23.698794 200.489181,26.16125 197.703947,26.7266226 L197.703947,39.0526316 L214.789474,39.0526316 L214.789474,2.44078947 L143.884518,2.44078947 L143.884518,2.44078947 Z M143.884518,119.598684 C143.319145,122.383918 140.856689,124.480263 137.904605,124.480263 C134.534578,124.480263 131.802632,121.748316 131.802632,118.378289 C131.802632,115.008263 134.534578,112.276316 137.904605,112.276316 C140.856689,112.276316 143.319145,114.372661 143.884518,117.157895 L167.194079,117.157895 L206.246711,78.1052632 L207.97261,78.1052632 L207.97261,78.1052632 L253.842105,78.1052632 L253.842105,26.7266226 C251.056872,26.16125 248.960526,23.698794 248.960526,20.7467105 C248.960526,17.3766836 251.692473,14.6447368 255.0625,14.6447368 C258.432527,14.6447368 261.164474,17.3766836 261.164474,20.7467105 C261.164474,23.698794 259.068128,26.16125 256.282895,26.7266226 L256.282895,80.5460526 L255.0625,80.5460526 L207.257718,80.5460526 L168.205087,119.598684 L165.973684,119.598684 L143.884518,119.598684 L143.884518,119.598684 Z M178.177632,229.556272 C180.962865,230.121644 183.059211,232.584101 183.059211,235.536184 C183.059211,238.906212 180.327264,241.638158 176.957237,241.638158 C173.58721,241.638158 170.855263,238.906212 170.855263,235.536184 C170.855263,232.584101 172.951608,230.121644 175.736842,229.556272 L175.736842,138.157358 L175.736842,136.178706 L214.283969,97.6315789 L216.262621,97.6315789 L216.262621,97.6315789 L273.368421,97.6315789 L273.368421,26.7266226 C270.583187,26.16125 268.486842,23.698794 268.486842,20.7467105 C268.486842,17.3766836 271.218788,14.6447368 274.588816,14.6447368 C277.958843,14.6447368 280.690789,17.3766836 280.690789,20.7467105 C280.690789,23.698794 278.594444,26.16125 275.809211,26.7266226 L275.809211,100.072368 L274.588816,100.072368 L215.294978,100.072368 L178.177632,137.189715 L178.177632,229.556272 L178.177632,229.556272 Z M197.703947,268.608904 C200.489181,269.174276 202.585526,271.636732 202.585526,274.588816 C202.585526,277.958843 199.85358,280.690789 196.483553,280.690789 C193.113525,280.690789 190.381579,277.958843 190.381579,274.588816 C190.381579,271.636732 192.477924,269.174276 195.263158,268.608904 L195.263158,149.14091 L195.263158,147.162259 L225.267522,117.157895 L227.246173,117.157895 L366.240482,117.157895 C366.725813,114.766982 368.609088,112.883707 371,112.398377 L371,114.925434 C369.578006,115.428037 368.559211,116.784187 368.559211,118.378289 C368.559211,119.972392 369.578006,121.328542 371,121.831145 L371,124.358202 C368.609088,123.872871 366.725813,121.989597 366.240482,119.598684 L226.278531,119.598684 L226.278531,119.598684 L197.703947,148.173268 L197.703947,268.608904 L197.703947,268.608904 Z M21.9671053,190.50364 C24.7523393,191.069013 26.8486842,193.531469 26.8486842,196.483553 C26.8486842,199.85358 24.1167375,202.585526 20.7467105,202.585526 C17.3766836,202.585526 14.6447368,199.85358 14.6447368,196.483553 C14.6447368,193.531469 16.7410817,191.069013 19.5263158,190.50364 L19.5263158,188.193542 L19.5263158,186.21489 L78.1052632,127.635943 L78.1052632,127.635943 L78.1052632,58.5789474 L79.3256579,58.5789474 L117.157895,58.5789474 L117.157895,0 L119.598684,0 L119.598684,59.1891447 L119.598684,61.0197368 L80.5460526,61.0197368 L80.5460526,126.6683 L80.5460526,128.646952 L21.9671053,187.225899 L21.9671053,190.50364 L21.9671053,190.50364 Z M61.0197368,65.7792542 C63.8049709,65.2138816 65.9013158,62.7514256 65.9013158,59.7993421 C65.9013158,56.4293152 63.1693691,53.6973684 59.7993421,53.6973684 C56.4293152,53.6973684 53.6973684,56.4293152 53.6973684,59.7993421 C53.6973684,62.7514256 55.7937133,65.2138816 58.5789474,65.7792542 L58.5789474,117.872785 L1.27361571e-14,176.451732 L0,176.451732 L0,178.430384 L0,255.0625 L0,256.282895 L34.2931142,256.282895 C34.8584868,259.068128 37.3209428,261.164474 40.2730263,261.164474 C43.6430533,261.164474 46.375,258.432527 46.375,255.0625 C46.375,251.692473 43.6430533,248.960526 40.2730263,248.960526 C37.3209428,248.960526 34.8584868,251.056872 34.2931142,253.842105 L2.44078947,253.842105 L2.44078947,177.462741 L2.44078947,177.462741 L61.0197368,118.883794 L61.0197368,116.905143 L61.0197368,65.7792542 L61.0197368,65.7792542 Z M41.4934211,85.30557 C44.2786551,84.7401974 46.375,82.2777414 46.375,79.3256579 C46.375,75.9556309 43.6430533,73.2236842 40.2730263,73.2236842 C36.9029994,73.2236842 34.1710526,75.9556309 34.1710526,79.3256579 C34.1710526,82.2777414 36.2673975,84.7401974 39.0526316,85.30557 L39.0526316,108.109627 L0,147.162259 L2.70982067e-15,147.162259 L4.35264946e-15,150.614057 L41.4934211,109.120636 L41.4934211,107.141985 L41.4934211,107.141985 L41.4934211,85.30557 L41.4934211,85.30557 Z M14.7667984,39.0526316 C15.332171,36.2673975 17.794627,34.1710526 20.7467105,34.1710526 C24.1167375,34.1710526 26.8486842,36.9029994 26.8486842,40.2730263 C26.8486842,43.6430533 24.1167375,46.375 20.7467105,46.375 C17.794627,46.375 15.332171,44.2786551 14.7667984,41.4934211 L11.4890567,41.4934211 L1.08392827e-15,52.9824778 L0,49.5306801 L5.41964135e-16,49.5306801 L10.4780486,39.0526316 L12.4566994,39.0526316 L12.4566994,39.0526316 L14.7667984,39.0526316 L14.7667984,39.0526316 Z M339.147675,61.0197368 C338.582303,63.8049709 336.119847,65.9013158 333.167763,65.9013158 C329.797736,65.9013158 327.065789,63.1693691 327.065789,59.7993421 C327.065789,56.4293152 329.797736,53.6973684 333.167763,53.6973684 C336.119847,53.6973684 338.582303,55.7937133 339.147675,58.5789474 L361.951732,58.5789474 L361.951732,58.5789474 L371,49.5306801 L371,52.9824778 L362.962741,61.0197368 L360.98409,61.0197368 L339.147675,61.0197368 L339.147675,61.0197368 Z M319.62136,256.282895 C319.055987,259.068128 316.593531,261.164474 313.641447,261.164474 C310.27142,261.164474 307.539474,258.432527 307.539474,255.0625 C307.539474,251.692473 310.27142,248.960526 313.641447,248.960526 C316.593531,248.960526 319.055987,251.056872 319.62136,253.842105 L351.473684,253.842105 L351.473684,168.667226 L351.473684,166.688574 L371,147.162259 L371,150.614057 L353.914474,167.699584 L353.914474,167.699584 L353.914474,256.282895 L352.694079,256.282895 L319.62136,256.282895 L319.62136,256.282895 Z M65.7792542,295.335526 C65.2138816,298.12076 62.7514256,300.217105 59.7993421,300.217105 C56.4293152,300.217105 53.6973684,297.485159 53.6973684,294.115132 C53.6973684,290.745104 56.4293152,288.013158 59.7993421,288.013158 C62.7514256,288.013158 65.2138816,290.109503 65.7792542,292.894737 L78.1052632,292.894737 L78.1052632,265.331162 L49.5306801,236.756579 L26.7266226,236.756579 C26.16125,239.541813 23.698794,241.638158 20.7467105,241.638158 C17.3766836,241.638158 14.6447368,238.906212 14.6447368,235.536184 C14.6447368,232.166157 17.3766836,229.434211 20.7467105,229.434211 C23.698794,229.434211 26.16125,231.530556 26.7266226,234.315789 L48.5630374,234.315789 L50.5416883,234.315789 L80.5460526,264.320153 L80.5460526,264.320153 L80.5460526,266.298805 L80.5460526,266.298805 L80.5460526,295.335526 L79.3256579,295.335526 L65.7792542,295.335526 L65.7792542,295.335526 Z M249.082588,312.421053 C249.64796,309.635819 252.110416,307.539474 255.0625,307.539474 C258.432527,307.539474 261.164474,310.27142 261.164474,313.641447 C261.164474,317.011475 258.432527,319.743421 255.0625,319.743421 C252.110416,319.743421 249.64796,317.647076 249.082588,314.861842 L117.157895,314.861842 L117.157895,313.03125 L117.157895,245.789769 L69.0720735,197.703947 L46.2529384,197.703947 C45.6875658,200.489181 43.2251098,202.585526 40.2730263,202.585526 C36.9029994,202.585526 34.1710526,199.85358 34.1710526,196.483553 C34.1710526,193.113525 36.9029994,190.381579 40.2730263,190.381579 C43.2251098,190.381579 45.6875658,192.477924 46.2529384,195.263158 L68.096892,195.263158 L70.0529265,195.263158 L119.598684,244.808915 L119.598684,244.808915 L119.598684,246.274524 L119.598684,246.274524 L119.598684,312.421053 L249.082588,312.421053 L249.082588,312.421053 Z M65.7792542,314.861842 C65.2138816,317.647076 62.7514256,319.743421 59.7993421,319.743421 C56.4293152,319.743421 53.6973684,317.011475 53.6973684,313.641447 C53.6973684,310.27142 56.4293152,307.539474 59.7993421,307.539474 C62.7514256,307.539474 65.2138816,309.635819 65.7792542,312.421053 L97.6315789,312.421053 L97.6315789,255.568005 L59.293838,217.230263 L26.7266226,217.230263 C26.16125,220.015497 23.698794,222.111842 20.7467105,222.111842 C17.3766836,222.111842 14.6447368,219.379896 14.6447368,216.009868 C14.6447368,212.639841 17.3766836,209.907895 20.7467105,209.907895 C23.698794,209.907895 26.16125,212.00424 26.7266226,214.789474 L58.3261953,214.789474 L60.3048462,214.789474 L100.072368,254.556995 L100.072368,254.556995 L100.072368,256.535647 L100.072368,256.535647 L100.072368,314.861842 L98.8519737,314.861842 L65.7792542,314.861842 L65.7792542,314.861842 Z M118.378289,122.039474 C120.400306,122.039474 122.039474,120.400306 122.039474,118.378289 C122.039474,116.356273 120.400306,114.717105 118.378289,114.717105 C116.356273,114.717105 114.717105,116.356273 114.717105,118.378289 C114.717105,120.400306 116.356273,122.039474 118.378289,122.039474 L118.378289,122.039474 Z M118.378289,102.513158 C120.400306,102.513158 122.039474,100.87399 122.039474,98.8519737 C122.039474,96.8299575 120.400306,95.1907895 118.378289,95.1907895 C116.356273,95.1907895 114.717105,96.8299575 114.717105,98.8519737 C114.717105,100.87399 116.356273,102.513158 118.378289,102.513158 L118.378289,102.513158 Z M137.904605,122.039474 C139.926621,122.039474 141.565789,120.400306 141.565789,118.378289 C141.565789,116.356273 139.926621,114.717105 137.904605,114.717105 C135.882589,114.717105 134.243421,116.356273 134.243421,118.378289 C134.243421,120.400306 135.882589,122.039474 137.904605,122.039474 L137.904605,122.039474 Z M157.430921,141.565789 C159.452937,141.565789 161.092105,139.926621 161.092105,137.904605 C161.092105,135.882589 159.452937,134.243421 157.430921,134.243421 C155.408905,134.243421 153.769737,135.882589 153.769737,137.904605 C153.769737,139.926621 155.408905,141.565789 157.430921,141.565789 L157.430921,141.565789 Z M157.430921,161.092105 C159.452937,161.092105 161.092105,159.452937 161.092105,157.430921 C161.092105,155.408905 159.452937,153.769737 157.430921,153.769737 C155.408905,153.769737 153.769737,155.408905 153.769737,157.430921 C153.769737,159.452937 155.408905,161.092105 157.430921,161.092105 L157.430921,161.092105 Z M98.8519737,200.144737 C100.87399,200.144737 102.513158,198.505569 102.513158,196.483553 C102.513158,194.461537 100.87399,192.822368 98.8519737,192.822368 C96.8299575,192.822368 95.1907895,194.461537 95.1907895,196.483553 C95.1907895,198.505569 96.8299575,200.144737 98.8519737,200.144737 L98.8519737,200.144737 Z M118.378289,219.671053 C120.400306,219.671053 122.039474,218.031884 122.039474,216.009868 C122.039474,213.987853 120.400306,212.348684 118.378289,212.348684 C116.356273,212.348684 114.717105,213.987853 114.717105,216.009868 C114.717105,218.031884 116.356273,219.671053 118.378289,219.671053 L118.378289,219.671053 Z M157.430921,278.25 C159.452937,278.25 161.092105,276.610832 161.092105,274.588816 C161.092105,272.5668 159.452937,270.927632 157.430921,270.927632 C155.408905,270.927632 153.769737,272.5668 153.769737,274.588816 C153.769737,276.610832 155.408905,278.25 157.430921,278.25 L157.430921,278.25 Z M137.904605,297.776316 C139.926621,297.776316 141.565789,296.137147 141.565789,294.115132 C141.565789,292.093116 139.926621,290.453947 137.904605,290.453947 C135.882589,290.453947 134.243421,292.093116 134.243421,294.115132 C134.243421,296.137147 135.882589,297.776316 137.904605,297.776316 L137.904605,297.776316 Z M176.957237,278.25 C178.979253,278.25 180.618421,276.610832 180.618421,274.588816 C180.618421,272.5668 178.979253,270.927632 176.957237,270.927632 C174.935221,270.927632 173.296053,272.5668 173.296053,274.588816 C173.296053,276.610832 174.935221,278.25 176.957237,278.25 L176.957237,278.25 Z M176.957237,239.197368 C178.979253,239.197368 180.618421,237.5582 180.618421,235.536184 C180.618421,233.514168 178.979253,231.875 176.957237,231.875 C174.935221,231.875 173.296053,233.514168 173.296053,235.536184 C173.296053,237.5582 174.935221,239.197368 176.957237,239.197368 L176.957237,239.197368 Z M196.483553,278.25 C198.505569,278.25 200.144737,276.610832 200.144737,274.588816 C200.144737,272.5668 198.505569,270.927632 196.483553,270.927632 C194.461537,270.927632 192.822368,272.5668 192.822368,274.588816 C192.822368,276.610832 194.461537,278.25 196.483553,278.25 L196.483553,278.25 Z M235.536184,297.776316 C237.5582,297.776316 239.197368,296.137147 239.197368,294.115132 C239.197368,292.093116 237.5582,290.453947 235.536184,290.453947 C233.514168,290.453947 231.875,292.093116 231.875,294.115132 C231.875,296.137147 233.514168,297.776316 235.536184,297.776316 L235.536184,297.776316 Z M235.536184,278.25 C237.5582,278.25 239.197368,276.610832 239.197368,274.588816 C239.197368,272.5668 237.5582,270.927632 235.536184,270.927632 C233.514168,270.927632 231.875,272.5668 231.875,274.588816 C231.875,276.610832 233.514168,278.25 235.536184,278.25 L235.536184,278.25 Z M216.009868,200.144737 C218.031884,200.144737 219.671053,198.505569 219.671053,196.483553 C219.671053,194.461537 218.031884,192.822368 216.009868,192.822368 C213.987853,192.822368 212.348684,194.461537 212.348684,196.483553 C212.348684,198.505569 213.987853,200.144737 216.009868,200.144737 L216.009868,200.144737 Z M235.536184,200.144737 C237.5582,200.144737 239.197368,198.505569 239.197368,196.483553 C239.197368,194.461537 237.5582,192.822368 235.536184,192.822368 C233.514168,192.822368 231.875,194.461537 231.875,196.483553 C231.875,198.505569 233.514168,200.144737 235.536184,200.144737 L235.536184,200.144737 Z M255.0625,317.302632 C257.084516,317.302632 258.723684,315.663463 258.723684,313.641447 C258.723684,311.619431 257.084516,309.980263 255.0625,309.980263 C253.040484,309.980263 251.401316,311.619431 251.401316,313.641447 C251.401316,315.663463 253.040484,317.302632 255.0625,317.302632 L255.0625,317.302632 Z M255.0625,336.828947 C257.084516,336.828947 258.723684,335.189779 258.723684,333.167763 C258.723684,331.145747 257.084516,329.506579 255.0625,329.506579 C253.040484,329.506579 251.401316,331.145747 251.401316,333.167763 C251.401316,335.189779 253.040484,336.828947 255.0625,336.828947 L255.0625,336.828947 Z M274.588816,356.355263 C276.610832,356.355263 278.25,354.716095 278.25,352.694079 C278.25,350.672063 276.610832,349.032895 274.588816,349.032895 C272.5668,349.032895 270.927632,350.672063 270.927632,352.694079 C270.927632,354.716095 272.5668,356.355263 274.588816,356.355263 L274.588816,356.355263 Z M294.115132,180.618421 C296.137147,180.618421 297.776316,178.979253 297.776316,176.957237 C297.776316,174.935221 296.137147,173.296053 294.115132,173.296053 C292.093116,173.296053 290.453947,174.935221 290.453947,176.957237 C290.453947,178.979253 292.093116,180.618421 294.115132,180.618421 L294.115132,180.618421 Z M294.115132,219.671053 C296.137147,219.671053 297.776316,218.031884 297.776316,216.009868 C297.776316,213.987853 296.137147,212.348684 294.115132,212.348684 C292.093116,212.348684 290.453947,213.987853 290.453947,216.009868 C290.453947,218.031884 292.093116,219.671053 294.115132,219.671053 L294.115132,219.671053 Z M313.641447,180.618421 C315.663463,180.618421 317.302632,178.979253 317.302632,176.957237 C317.302632,174.935221 315.663463,173.296053 313.641447,173.296053 C311.619431,173.296053 309.980263,174.935221 309.980263,176.957237 C309.980263,178.979253 311.619431,180.618421 313.641447,180.618421 L313.641447,180.618421 Z M333.167763,161.092105 C335.189779,161.092105 336.828947,159.452937 336.828947,157.430921 C336.828947,155.408905 335.189779,153.769737 333.167763,153.769737 C331.145747,153.769737 329.506579,155.408905 329.506579,157.430921 C329.506579,159.452937 331.145747,161.092105 333.167763,161.092105 L333.167763,161.092105 Z M216.009868,161.092105 C218.031884,161.092105 219.671053,159.452937 219.671053,157.430921 C219.671053,155.408905 218.031884,153.769737 216.009868,153.769737 C213.987853,153.769737 212.348684,155.408905 212.348684,157.430921 C212.348684,159.452937 213.987853,161.092105 216.009868,161.092105 L216.009868,161.092105 Z M216.009868,180.618421 C218.031884,180.618421 219.671053,178.979253 219.671053,176.957237 C219.671053,174.935221 218.031884,173.296053 216.009868,173.296053 C213.987853,173.296053 212.348684,174.935221 212.348684,176.957237 C212.348684,178.979253 213.987853,180.618421 216.009868,180.618421 L216.009868,180.618421 Z M235.536184,141.565789 C237.5582,141.565789 239.197368,139.926621 239.197368,137.904605 C239.197368,135.882589 237.5582,134.243421 235.536184,134.243421 C233.514168,134.243421 231.875,135.882589 231.875,137.904605 C231.875,139.926621 233.514168,141.565789 235.536184,141.565789 L235.536184,141.565789 Z M352.694079,141.565789 C354.716095,141.565789 356.355263,139.926621 356.355263,137.904605 C356.355263,135.882589 354.716095,134.243421 352.694079,134.243421 C350.672063,134.243421 349.032895,135.882589 349.032895,137.904605 C349.032895,139.926621 350.672063,141.565789 352.694079,141.565789 L352.694079,141.565789 Z M333.167763,63.4605263 C335.189779,63.4605263 336.828947,61.8213583 336.828947,59.7993421 C336.828947,57.777326 335.189779,56.1381579 333.167763,56.1381579 C331.145747,56.1381579 329.506579,57.777326 329.506579,59.7993421 C329.506579,61.8213583 331.145747,63.4605263 333.167763,63.4605263 L333.167763,63.4605263 Z M352.694079,43.9342105 C354.716095,43.9342105 356.355263,42.2950425 356.355263,40.2730263 C356.355263,38.2510102 354.716095,36.6118421 352.694079,36.6118421 C350.672063,36.6118421 349.032895,38.2510102 349.032895,40.2730263 C349.032895,42.2950425 350.672063,43.9342105 352.694079,43.9342105 L352.694079,43.9342105 Z M313.641447,43.9342105 C315.663463,43.9342105 317.302632,42.2950425 317.302632,40.2730263 C317.302632,38.2510102 315.663463,36.6118421 313.641447,36.6118421 C311.619431,36.6118421 309.980263,38.2510102 309.980263,40.2730263 C309.980263,42.2950425 311.619431,43.9342105 313.641447,43.9342105 L313.641447,43.9342105 Z M313.641447,24.4078947 C315.663463,24.4078947 317.302632,22.7687267 317.302632,20.7467105 C317.302632,18.7246944 315.663463,17.0855263 313.641447,17.0855263 C311.619431,17.0855263 309.980263,18.7246944 309.980263,20.7467105 C309.980263,22.7687267 311.619431,24.4078947 313.641447,24.4078947 L313.641447,24.4078947 Z M294.115132,24.4078947 C296.137147,24.4078947 297.776316,22.7687267 297.776316,20.7467105 C297.776316,18.7246944 296.137147,17.0855263 294.115132,17.0855263 C292.093116,17.0855263 290.453947,18.7246944 290.453947,20.7467105 C290.453947,22.7687267 292.093116,24.4078947 294.115132,24.4078947 L294.115132,24.4078947 Z M274.588816,24.4078947 C276.610832,24.4078947 278.25,22.7687267 278.25,20.7467105 C278.25,18.7246944 276.610832,17.0855263 274.588816,17.0855263 C272.5668,17.0855263 270.927632,18.7246944 270.927632,20.7467105 C270.927632,22.7687267 272.5668,24.4078947 274.588816,24.4078947 L274.588816,24.4078947 Z M255.0625,24.4078947 C257.084516,24.4078947 258.723684,22.7687267 258.723684,20.7467105 C258.723684,18.7246944 257.084516,17.0855263 255.0625,17.0855263 C253.040484,17.0855263 251.401316,18.7246944 251.401316,20.7467105 C251.401316,22.7687267 253.040484,24.4078947 255.0625,24.4078947 L255.0625,24.4078947 Z M59.7993421,43.9342105 C61.8213583,43.9342105 63.4605263,42.2950425 63.4605263,40.2730263 C63.4605263,38.2510102 61.8213583,36.6118421 59.7993421,36.6118421 C57.777326,36.6118421 56.1381579,38.2510102 56.1381579,40.2730263 C56.1381579,42.2950425 57.777326,43.9342105 59.7993421,43.9342105 L59.7993421,43.9342105 Z M20.7467105,43.9342105 C22.7687267,43.9342105 24.4078947,42.2950425 24.4078947,40.2730263 C24.4078947,38.2510102 22.7687267,36.6118421 20.7467105,36.6118421 C18.7246944,36.6118421 17.0855263,38.2510102 17.0855263,40.2730263 C17.0855263,42.2950425 18.7246944,43.9342105 20.7467105,43.9342105 L20.7467105,43.9342105 Z M59.7993421,63.4605263 C61.8213583,63.4605263 63.4605263,61.8213583 63.4605263,59.7993421 C63.4605263,57.777326 61.8213583,56.1381579 59.7993421,56.1381579 C57.777326,56.1381579 56.1381579,57.777326 56.1381579,59.7993421 C56.1381579,61.8213583 57.777326,63.4605263 59.7993421,63.4605263 L59.7993421,63.4605263 Z M40.2730263,82.9868421 C42.2950425,82.9868421 43.9342105,81.347674 43.9342105,79.3256579 C43.9342105,77.3036417 42.2950425,75.6644737 40.2730263,75.6644737 C38.2510102,75.6644737 36.6118421,77.3036417 36.6118421,79.3256579 C36.6118421,81.347674 38.2510102,82.9868421 40.2730263,82.9868421 L40.2730263,82.9868421 Z M59.7993421,24.4078947 C61.8213583,24.4078947 63.4605263,22.7687267 63.4605263,20.7467105 C63.4605263,18.7246944 61.8213583,17.0855263 59.7993421,17.0855263 C57.777326,17.0855263 56.1381579,18.7246944 56.1381579,20.7467105 C56.1381579,22.7687267 57.777326,24.4078947 59.7993421,24.4078947 L59.7993421,24.4078947 Z M59.7993421,317.302632 C61.8213583,317.302632 63.4605263,315.663463 63.4605263,313.641447 C63.4605263,311.619431 61.8213583,309.980263 59.7993421,309.980263 C57.777326,309.980263 56.1381579,311.619431 56.1381579,313.641447 C56.1381579,315.663463 57.777326,317.302632 59.7993421,317.302632 L59.7993421,317.302632 Z M79.3256579,356.355263 C81.347674,356.355263 82.9868421,354.716095 82.9868421,352.694079 C82.9868421,350.672063 81.347674,349.032895 79.3256579,349.032895 C77.3036417,349.032895 75.6644737,350.672063 75.6644737,352.694079 C75.6644737,354.716095 77.3036417,356.355263 79.3256579,356.355263 L79.3256579,356.355263 Z M59.7993421,278.25 C61.8213583,278.25 63.4605263,276.610832 63.4605263,274.588816 C63.4605263,272.5668 61.8213583,270.927632 59.7993421,270.927632 C57.777326,270.927632 56.1381579,272.5668 56.1381579,274.588816 C56.1381579,276.610832 57.777326,278.25 59.7993421,278.25 L59.7993421,278.25 Z M59.7993421,297.776316 C61.8213583,297.776316 63.4605263,296.137147 63.4605263,294.115132 C63.4605263,292.093116 61.8213583,290.453947 59.7993421,290.453947 C57.777326,290.453947 56.1381579,292.093116 56.1381579,294.115132 C56.1381579,296.137147 57.777326,297.776316 59.7993421,297.776316 L59.7993421,297.776316 Z M40.2730263,258.723684 C42.2950425,258.723684 43.9342105,257.084516 43.9342105,255.0625 C43.9342105,253.040484 42.2950425,251.401316 40.2730263,251.401316 C38.2510102,251.401316 36.6118421,253.040484 36.6118421,255.0625 C36.6118421,257.084516 38.2510102,258.723684 40.2730263,258.723684 L40.2730263,258.723684 Z M137.904605,43.9342105 C139.926621,43.9342105 141.565789,42.2950425 141.565789,40.2730263 C141.565789,38.2510102 139.926621,36.6118421 137.904605,36.6118421 C135.882589,36.6118421 134.243421,38.2510102 134.243421,40.2730263 C134.243421,42.2950425 135.882589,43.9342105 137.904605,43.9342105 L137.904605,43.9342105 Z M157.430921,43.9342105 C159.452937,43.9342105 161.092105,42.2950425 161.092105,40.2730263 C161.092105,38.2510102 159.452937,36.6118421 157.430921,36.6118421 C155.408905,36.6118421 153.769737,38.2510102 153.769737,40.2730263 C153.769737,42.2950425 155.408905,43.9342105 157.430921,43.9342105 L157.430921,43.9342105 Z M137.904605,24.4078947 C139.926621,24.4078947 141.565789,22.7687267 141.565789,20.7467105 C141.565789,18.7246944 139.926621,17.0855263 137.904605,17.0855263 C135.882589,17.0855263 134.243421,18.7246944 134.243421,20.7467105 C134.243421,22.7687267 135.882589,24.4078947 137.904605,24.4078947 L137.904605,24.4078947 Z M176.957237,82.9868421 C178.979253,82.9868421 180.618421,81.347674 180.618421,79.3256579 C180.618421,77.3036417 178.979253,75.6644737 176.957237,75.6644737 C174.935221,75.6644737 173.296053,77.3036417 173.296053,79.3256579 C173.296053,81.347674 174.935221,82.9868421 176.957237,82.9868421 L176.957237,82.9868421 Z M196.483553,63.4605263 C198.505569,63.4605263 200.144737,61.8213583 200.144737,59.7993421 C200.144737,57.777326 198.505569,56.1381579 196.483553,56.1381579 C194.461537,56.1381579 192.822368,57.777326 192.822368,59.7993421 C192.822368,61.8213583 194.461537,63.4605263 196.483553,63.4605263 L196.483553,63.4605263 Z M196.483553,24.4078947 C198.505569,24.4078947 200.144737,22.7687267 200.144737,20.7467105 C200.144737,18.7246944 198.505569,17.0855263 196.483553,17.0855263 C194.461537,17.0855263 192.822368,18.7246944 192.822368,20.7467105 C192.822368,22.7687267 194.461537,24.4078947 196.483553,24.4078947 L196.483553,24.4078947 Z M333.167763,239.197368 C335.189779,239.197368 336.828947,237.5582 336.828947,235.536184 C336.828947,233.514168 335.189779,231.875 333.167763,231.875 C331.145747,231.875 329.506579,233.514168 329.506579,235.536184 C329.506579,237.5582 331.145747,239.197368 333.167763,239.197368 L333.167763,239.197368 Z M313.641447,258.723684 C315.663463,258.723684 317.302632,257.084516 317.302632,255.0625 C317.302632,253.040484 315.663463,251.401316 313.641447,251.401316 C311.619431,251.401316 309.980263,253.040484 309.980263,255.0625 C309.980263,257.084516 311.619431,258.723684 313.641447,258.723684 L313.641447,258.723684 Z M313.641447,278.25 C315.663463,278.25 317.302632,276.610832 317.302632,274.588816 C317.302632,272.5668 315.663463,270.927632 313.641447,270.927632 C311.619431,270.927632 309.980263,272.5668 309.980263,274.588816 C309.980263,276.610832 311.619431,278.25 313.641447,278.25 L313.641447,278.25 Z M313.641447,297.776316 C315.663463,297.776316 317.302632,296.137147 317.302632,294.115132 C317.302632,292.093116 315.663463,290.453947 313.641447,290.453947 C311.619431,290.453947 309.980263,292.093116 309.980263,294.115132 C309.980263,296.137147 311.619431,297.776316 313.641447,297.776316 L313.641447,297.776316 Z M20.7467105,219.671053 C22.7687267,219.671053 24.4078947,218.031884 24.4078947,216.009868 C24.4078947,213.987853 22.7687267,212.348684 20.7467105,212.348684 C18.7246944,212.348684 17.0855263,213.987853 17.0855263,216.009868 C17.0855263,218.031884 18.7246944,219.671053 20.7467105,219.671053 L20.7467105,219.671053 Z M20.7467105,239.197368 C22.7687267,239.197368 24.4078947,237.5582 24.4078947,235.536184 C24.4078947,233.514168 22.7687267,231.875 20.7467105,231.875 C18.7246944,231.875 17.0855263,233.514168 17.0855263,235.536184 C17.0855263,237.5582 18.7246944,239.197368 20.7467105,239.197368 L20.7467105,239.197368 Z M20.7467105,200.144737 C22.7687267,200.144737 24.4078947,198.505569 24.4078947,196.483553 C24.4078947,194.461537 22.7687267,192.822368 20.7467105,192.822368 C18.7246944,192.822368 17.0855263,194.461537 17.0855263,196.483553 C17.0855263,198.505569 18.7246944,200.144737 20.7467105,200.144737 L20.7467105,200.144737 Z M40.2730263,200.144737 C42.2950425,200.144737 43.9342105,198.505569 43.9342105,196.483553 C43.9342105,194.461537 42.2950425,192.822368 40.2730263,192.822368 C38.2510102,192.822368 36.6118421,194.461537 36.6118421,196.483553 C36.6118421,198.505569 38.2510102,200.144737 40.2730263,200.144737 L40.2730263,200.144737 Z M20.7467105,102.513158 C22.7687267,102.513158 24.4078947,100.87399 24.4078947,98.8519737 C24.4078947,96.8299575 22.7687267,95.1907895 20.7467105,95.1907895 C18.7246944,95.1907895 17.0855263,96.8299575 17.0855263,98.8519737 C17.0855263,100.87399 18.7246944,102.513158 20.7467105,102.513158 L20.7467105,102.513158 Z M59.7993421,180.618421 C61.8213583,180.618421 63.4605263,178.979253 63.4605263,176.957237 C63.4605263,174.935221 61.8213583,173.296053 59.7993421,173.296053 C57.777326,173.296053 56.1381579,174.935221 56.1381579,176.957237 C56.1381579,178.979253 57.777326,180.618421 59.7993421,180.618421 L59.7993421,180.618421 Z M79.3256579,161.092105 C81.347674,161.092105 82.9868421,159.452937 82.9868421,157.430921 C82.9868421,155.408905 81.347674,153.769737 79.3256579,153.769737 C77.3036417,153.769737 75.6644737,155.408905 75.6644737,157.430921 C75.6644737,159.452937 77.3036417,161.092105 79.3256579,161.092105 L79.3256579,161.092105 Z M41.4934211,48.5630374 L41.4934211,0 L39.0526316,0 L39.0526316,49.5306801 L10.4780486,78.1052632 L0,78.1052632 L0,80.5460526 L9.51040587,80.5460526 L11.4890567,80.5460526 L41.4934211,50.5416883 L41.4934211,48.5630374 L41.4934211,48.5630374 L41.4934211,48.5630374 Z M2.44078947,366.240482 L2.44078947,314.861842 L19.5263158,314.861842 L19.5263158,371 L21.9671053,371 L21.9671053,313.641447 L21.9671053,312.421053 L1.22039474,312.421053 L0,312.421053 L0,366.789649 L1.96461999e-15,368.767539 C0.381713754,368.632622 0.792481112,368.559211 1.22039474,368.559211 C2.81449732,368.559211 4.17064761,369.578006 4.6732506,371 L7.20030683,371 C6.71497724,368.609088 4.83170188,366.725813 2.44078947,366.240482 L2.44078947,366.240482 L2.44078947,366.240482 Z M41.4934211,294.115132 L41.4934211,371 L39.0526316,371 L39.0526316,295.335526 L0,295.335526 L0,292.894737 L41.4934211,292.894737 L41.4934211,294.115132 L41.4934211,294.115132 L41.4934211,294.115132 Z M20.7467105,21.9671053 L21.9671053,21.9671053 L21.9671053,0 L19.5263158,0 L19.5263158,19.5263158 L0,19.5263158 L0,21.9671053 L20.7467105,21.9671053 L20.7467105,21.9671053 L20.7467105,21.9671053 Z M353.914474,19.5263158 L353.914474,0 L351.473684,0 L351.473684,20.7467105 L351.473684,21.9671053 L371,21.9671053 L371,19.5263158 L353.914474,19.5263158 L353.914474,19.5263158 Z M314.861842,352.694079 L314.861842,371 L312.421053,371 L312.421053,353.914474 L295.335526,353.914474 L295.335526,371 L292.894737,371 L292.894737,351.473684 L294.115132,351.473684 L314.861842,351.473684 L314.861842,352.694079 L314.861842,352.694079 Z M1.8104304e-13,112.398377 C0.39432167,112.318334 0.802451229,112.276316 1.22039474,112.276316 C4.59042175,112.276316 7.32236842,115.008263 7.32236842,118.378289 C7.32236842,121.748316 4.59042175,124.480263 1.22039474,124.480263 C0.802451229,124.480263 0.39432167,124.438245 2.27516465e-13,124.358202 L2.27516465e-13,121.831145 C0.381713754,121.966062 0.792481112,122.039474 1.22039474,122.039474 C3.24241094,122.039474 4.88157895,120.400306 4.88157895,118.378289 C4.88157895,116.356273 3.24241094,114.717105 1.22039474,114.717105 C0.792481112,114.717105 0.381713754,114.790517 -1.25055521e-12,114.925434 L2.27516465e-13,112.398377 L1.8104304e-13,112.398377 L1.8104304e-13,112.398377 Z M97.6315789,331.947368 L100.072368,331.947368 L100.072368,371 L97.6315789,371 L97.6315789,331.947368 L97.6315789,331.947368 Z M143.884518,371 C143.319145,368.214766 140.856689,366.118421 137.904605,366.118421 C134.952522,366.118421 132.490065,368.214766 131.924693,371 L134.45175,371 C134.954352,369.578006 136.310502,368.559211 137.904605,368.559211 C139.498708,368.559211 140.854858,369.578006 141.357461,371 L143.884518,371 L143.884518,371 L143.884518,371 Z M7.20030683,2.24942135e-13 C7.28034991,0.39432167 7.32236842,0.802451229 7.32236842,1.22039474 C7.32236842,4.59042175 4.59042175,7.32236842 1.22039474,7.32236842 C0.802451229,7.32236842 0.39432167,7.28034991 0,7.20030683 L2.10011102e-15,4.6732506 C0.381713754,4.80816705 0.792481112,4.88157895 1.22039474,4.88157895 C3.24241094,4.88157895 4.88157895,3.24241094 4.88157895,1.22039474 C4.88157895,0.792481112 4.80816705,0.381713754 4.6732506,-1.25055521e-12 L7.20030683,2.27245482e-13 L7.20030683,2.24942135e-13 L7.20030683,2.24942135e-13 Z M366.240482,0 C366.160439,0.39432167 366.118421,0.802451229 366.118421,1.22039474 C366.118421,4.17247824 368.214766,6.63493416 371,7.20030683 L371,4.6732506 C369.578006,4.17064761 368.559211,2.81449732 368.559211,1.22039474 C368.559211,0.792481112 368.632622,0.381713754 368.767539,1.86300171e-15 L366.240482,2.10011102e-15 L366.240482,0 L366.240482,0 Z M371,366.240482 C368.609088,366.725813 366.725813,368.609088 366.240482,371 L368.767539,371 C369.135226,369.95972 369.95972,369.135226 371,368.767539 L371,366.240482 L371,366.240482 Z" id="Combined-Shape"></path>
            </g>
        </g>
    </g>
</svg>