<?xml version="1.0" encoding="UTF-8"?>
<svg width="32px" height="32px" viewBox="0 0 32 32" version="1.1" xmlns="http://www.w3.org/2000/svg" xmlns:xlink="http://www.w3.org/1999/xlink">
    <!-- Generator: Sketch 44.1 (41455) - http://www.bohemiancoding.com/sketch -->
    <title>Fill 184</title>
    <desc>Created with Sketch.</desc>
    <defs></defs>
    <g id="Page-1" stroke="none" stroke-width="1" fill="none" fill-rule="evenodd">
        <g id="Group" transform="translate(-53.000000, -416.000000)" fill="#444444">
            <path d="M75.3621,428.7371 C75.3681,428.8781 75.3721,429.0191 75.3721,429.1621 C75.3721,433.4991 72.0701,438.5011 66.0321,438.5011 C64.1781,438.5011 62.4531,437.9581 61.0001,437.0271 C61.2571,437.0571 61.5181,437.0721 61.7831,437.0721 C63.3211,437.0721 64.7361,436.5481 65.8601,435.6671 C64.4231,435.6411 63.2111,434.6921 62.7931,433.3881 C62.9941,433.4261 63.1991,433.4461 63.4111,433.4461 C63.7101,433.4461 64.0001,433.4061 64.2761,433.3311 C62.7741,433.0301 61.6431,431.7031 61.6431,430.1131 L61.6431,430.0711 C62.0851,430.3171 62.5921,430.4651 63.1301,430.4821 C62.2491,429.8931 61.6691,428.8881 61.6691,427.7501 C61.6691,427.1481 61.8311,426.5841 62.1141,426.0991 C63.7331,428.0851 66.1521,429.3921 68.8801,429.5291 C68.8241,429.2891 68.7951,429.0381 68.7951,428.7811 C68.7951,426.9681 70.2651,425.4981 72.0771,425.4981 C73.0221,425.4981 73.8751,425.8971 74.4731,426.5351 C75.2211,426.3881 75.9241,426.1151 76.5581,425.7391 C76.3131,426.5051 75.7921,427.1481 75.1151,427.5551 C75.7791,427.4751 76.4111,427.2991 77.0001,427.0381 C76.5601,427.6961 76.0031,428.2741 75.3621,428.7371 M69.0001,416.0001 C60.1631,416.0001 53.0001,423.1631 53.0001,432.0001 C53.0001,440.8361 60.1631,448.0001 69.0001,448.0001 C77.8371,448.0001 85.0001,440.8361 85.0001,432.0001 C85.0001,423.1631 77.8371,416.0001 69.0001,416.0001" id="Fill-184"></path>
        </g>
    </g>
</svg>